<?xml version="1.0" encoding="UTF-8"?>
<!--Generator: Apple Native CoreSVG 149-->
<!DOCTYPE svg
PUBLIC "-//W3C//DTD SVG 1.1//EN"
       "http://www.w3.org/Graphics/SVG/1.1/DTD/svg11.dtd">
<svg version="1.1" xmlns="http://www.w3.org/2000/svg" xmlns:xlink="http://www.w3.org/1999/xlink" width="3300" height="2200">
 <!--glyph: "uni1003AB.medium", point size: 100.000000, font version: "Version 16.0d18e1", template writer version: "8"-->
 <g id="Notes">
  <rect height="2200" id="artboard" style="fill:white;opacity:1" width="3300" x="0" y="0"/>
  <line id="" style="fill:none;stroke:black;opacity:1;stroke-width:0.5;" x1="263" x2="3036" y1="292" y2="292"/>
  <text style="stroke:none;fill:black;font-family:-apple-system,&quot;SF Pro Display&quot;,&quot;SF Pro Text&quot;,Helvetica,sans-serif;font-weight:bold;" transform="matrix(1 0 0 1 263 322)">Weight/Scale Variations</text>
  <text style="stroke:none;fill:black;font-family:-apple-system,&quot;SF Pro Display&quot;,&quot;SF Pro Text&quot;,Helvetica,sans-serif;text-anchor:middle;" transform="matrix(1 0 0 1 559.711 322)">Ultralight</text>
  <text style="stroke:none;fill:black;font-family:-apple-system,&quot;SF Pro Display&quot;,&quot;SF Pro Text&quot;,Helvetica,sans-serif;text-anchor:middle;" transform="matrix(1 0 0 1 856.422 322)">Thin</text>
  <text style="stroke:none;fill:black;font-family:-apple-system,&quot;SF Pro Display&quot;,&quot;SF Pro Text&quot;,Helvetica,sans-serif;text-anchor:middle;" transform="matrix(1 0 0 1 1153.13 322)">Light</text>
  <text style="stroke:none;fill:black;font-family:-apple-system,&quot;SF Pro Display&quot;,&quot;SF Pro Text&quot;,Helvetica,sans-serif;text-anchor:middle;" transform="matrix(1 0 0 1 1449.84 322)">Regular</text>
  <text style="stroke:none;fill:black;font-family:-apple-system,&quot;SF Pro Display&quot;,&quot;SF Pro Text&quot;,Helvetica,sans-serif;text-anchor:middle;" transform="matrix(1 0 0 1 1746.56 322)">Medium</text>
  <text style="stroke:none;fill:black;font-family:-apple-system,&quot;SF Pro Display&quot;,&quot;SF Pro Text&quot;,Helvetica,sans-serif;text-anchor:middle;" transform="matrix(1 0 0 1 2043.27 322)">Semibold</text>
  <text style="stroke:none;fill:black;font-family:-apple-system,&quot;SF Pro Display&quot;,&quot;SF Pro Text&quot;,Helvetica,sans-serif;text-anchor:middle;" transform="matrix(1 0 0 1 2339.98 322)">Bold</text>
  <text style="stroke:none;fill:black;font-family:-apple-system,&quot;SF Pro Display&quot;,&quot;SF Pro Text&quot;,Helvetica,sans-serif;text-anchor:middle;" transform="matrix(1 0 0 1 2636.69 322)">Heavy</text>
  <text style="stroke:none;fill:black;font-family:-apple-system,&quot;SF Pro Display&quot;,&quot;SF Pro Text&quot;,Helvetica,sans-serif;text-anchor:middle;" transform="matrix(1 0 0 1 2933.4 322)">Black</text>
  <line id="" style="fill:none;stroke:black;opacity:1;stroke-width:0.5;" x1="263" x2="3036" y1="1903" y2="1903"/>
  <g id="" transform="matrix(1 0 0 1 263 1933)">
   <path d="M9.24805 0.830078C13.5547 0.830078 17.1387-2.74414 17.1387-7.05078C17.1387-11.3574 13.5449-14.9316 9.23828-14.9316C4.94141-14.9316 1.36719-11.3574 1.36719-7.05078C1.36719-2.74414 4.95117 0.830078 9.24805 0.830078ZM9.24805-0.654297C5.70312-0.654297 2.87109-3.49609 2.87109-7.05078C2.87109-10.6055 5.69336-13.4473 9.23828-13.4473C12.793-13.4473 15.6348-10.6055 15.6445-7.05078C15.6543-3.49609 12.8027-0.654297 9.24805-0.654297ZM6.39648-6.31836L8.50586-6.31836L8.50586-4.19922C8.50586-3.75977 8.79883-3.45703 9.22852-3.45703C9.67773-3.45703 9.9707-3.75977 9.9707-4.19922L9.9707-6.31836L12.0996-6.31836C12.5391-6.31836 12.8418-6.61133 12.8418-7.04102C12.8418-7.48047 12.5391-7.7832 12.0996-7.7832L9.9707-7.7832L9.9707-9.89258C9.9707-10.3418 9.67773-10.6445 9.22852-10.6445C8.79883-10.6445 8.50586-10.3418 8.50586-9.89258L8.50586-7.7832L6.39648-7.7832C5.94727-7.7832 5.64453-7.48047 5.64453-7.04102C5.64453-6.61133 5.94727-6.31836 6.39648-6.31836Z"/>
  </g>
  <g id="" transform="matrix(1 0 0 1 281.506 1933)">
   <path d="M11.709 2.91016C17.1582 2.91016 21.6699-1.61133 21.6699-7.05078C21.6699-12.5 17.1484-17.0117 11.6992-17.0117C6.25977-17.0117 1.74805-12.5 1.74805-7.05078C1.74805-1.61133 6.26953 2.91016 11.709 2.91016ZM11.709 1.25C7.09961 1.25 3.41797-2.44141 3.41797-7.05078C3.41797-11.6602 7.08984-15.3516 11.6992-15.3516C16.3086-15.3516 20-11.6602 20.0098-7.05078C20.0195-2.44141 16.3184 1.25 11.709 1.25ZM7.98828-6.23047L10.8789-6.23047L10.8789-3.32031C10.8789-2.83203 11.2109-2.5 11.6895-2.5C12.1777-2.5 12.5195-2.83203 12.5195-3.32031L12.5195-6.23047L15.4297-6.23047C15.918-6.23047 16.25-6.5625 16.25-7.04102C16.25-7.5293 15.918-7.87109 15.4297-7.87109L12.5195-7.87109L12.5195-10.7617C12.5195-11.2695 12.1777-11.6016 11.6895-11.6016C11.2109-11.6016 10.8789-11.2598 10.8789-10.7617L10.8789-7.87109L7.98828-7.87109C7.48047-7.87109 7.14844-7.5293 7.14844-7.04102C7.14844-6.5625 7.49023-6.23047 7.98828-6.23047Z"/>
  </g>
  <g id="" transform="matrix(1 0 0 1 304.924 1933)">
   <path d="M14.9707 5.66406C21.9336 5.66406 27.6953-0.0976562 27.6953-7.05078C27.6953-14.0137 21.9238-19.7754 14.9609-19.7754C8.00781-19.7754 2.25586-14.0137 2.25586-7.05078C2.25586-0.0976562 8.01758 5.66406 14.9707 5.66406ZM14.9707 3.84766C8.93555 3.84766 4.08203-1.01562 4.08203-7.05078C4.08203-13.0957 8.92578-17.9492 14.9609-17.9492C21.0059-17.9492 25.8594-13.0957 25.8691-7.05078C25.8789-1.01562 21.0156 3.84766 14.9707 3.84766ZM10.0586-6.14258L14.0625-6.14258L14.0625-2.12891C14.0625-1.5918 14.4336-1.2207 14.9512-1.2207C15.4883-1.2207 15.8594-1.5918 15.8594-2.12891L15.8594-6.14258L19.8828-6.14258C20.4102-6.14258 20.791-6.51367 20.791-7.03125C20.791-7.56836 20.4199-7.94922 19.8828-7.94922L15.8594-7.94922L15.8594-11.9531C15.8594-12.5098 15.4883-12.8809 14.9512-12.8809C14.4336-12.8809 14.0625-12.5 14.0625-11.9531L14.0625-7.94922L10.0586-7.94922C9.50195-7.94922 9.13086-7.56836 9.13086-7.03125C9.13086-6.51367 9.51172-6.14258 10.0586-6.14258Z"/>
  </g>
  <text style="stroke:none;fill:black;font-family:-apple-system,&quot;SF Pro Display&quot;,&quot;SF Pro Text&quot;,Helvetica,sans-serif;font-weight:bold;" transform="matrix(1 0 0 1 263 1953)">Design Variations</text>
  <text style="stroke:none;fill:black;font-family:-apple-system,&quot;SF Pro Display&quot;,&quot;SF Pro Text&quot;,Helvetica,sans-serif;" transform="matrix(1 0 0 1 263 1971)">Symbols are supported in up to nine weights and three scales.</text>
  <text style="stroke:none;fill:black;font-family:-apple-system,&quot;SF Pro Display&quot;,&quot;SF Pro Text&quot;,Helvetica,sans-serif;" transform="matrix(1 0 0 1 263 1989)">For optimal layout with text and other symbols, vertically align</text>
  <text style="stroke:none;fill:black;font-family:-apple-system,&quot;SF Pro Display&quot;,&quot;SF Pro Text&quot;,Helvetica,sans-serif;" transform="matrix(1 0 0 1 263 2007)">symbols with the adjacent text.</text>
  <line id="" style="fill:none;stroke:#00AEEF;stroke-width:0.5;opacity:1.0;" x1="776" x2="776" y1="1919" y2="1933"/>
  <g id="" transform="matrix(1 0 0 1 776 1933)">
   <path d="M3.31055 0.126953C3.82812 0.126953 4.08203-0.0683594 4.26758-0.605469L5.52734-4.0625L11.2891-4.0625L12.5488-0.605469C12.7344-0.0683594 12.9883 0.126953 13.4961 0.126953C14.0137 0.126953 14.3457-0.185547 14.3457-0.673828C14.3457-0.839844 14.3164-0.986328 14.2383-1.20117L9.6582-13.3887C9.43359-13.9941 9.0332-14.2871 8.4082-14.2871C7.80273-14.2871 7.39258-13.9941 7.17773-13.3984L2.59766-1.19141C2.51953-0.976562 2.49023-0.830078 2.49023-0.664062C2.49023-0.175781 2.80273 0.126953 3.31055 0.126953ZM6.00586-5.53711L8.37891-12.1094L8.42773-12.1094L10.8008-5.53711Z"/>
  </g>
  <line id="" style="fill:none;stroke:#00AEEF;stroke-width:0.5;opacity:1.0;" x1="792.836" x2="792.836" y1="1919" y2="1933"/>
  <text style="stroke:none;fill:black;font-family:-apple-system,&quot;SF Pro Display&quot;,&quot;SF Pro Text&quot;,Helvetica,sans-serif;font-weight:bold;" transform="matrix(1 0 0 1 776 1953)">Margins</text>
  <text style="stroke:none;fill:black;font-family:-apple-system,&quot;SF Pro Display&quot;,&quot;SF Pro Text&quot;,Helvetica,sans-serif;" transform="matrix(1 0 0 1 776 1971)">Leading and trailing margins on the left and right side of each symbol</text>
  <text style="stroke:none;fill:black;font-family:-apple-system,&quot;SF Pro Display&quot;,&quot;SF Pro Text&quot;,Helvetica,sans-serif;" transform="matrix(1 0 0 1 776 1989)">can be adjusted by modifying the x-location of the margin guidelines.</text>
  <text style="stroke:none;fill:black;font-family:-apple-system,&quot;SF Pro Display&quot;,&quot;SF Pro Text&quot;,Helvetica,sans-serif;" transform="matrix(1 0 0 1 776 2007)">Modifications are automatically applied proportionally to all</text>
  <text style="stroke:none;fill:black;font-family:-apple-system,&quot;SF Pro Display&quot;,&quot;SF Pro Text&quot;,Helvetica,sans-serif;" transform="matrix(1 0 0 1 776 2025)">scales and weights.</text>
  <g id="" transform="matrix(1 0 0 1 1289 1933)">
   <path d="M2.8418 1.86523L4.54102 3.57422C5.40039 4.44336 6.38672 4.38477 7.31445 3.35938L17.4902-7.85156C17.7539-7.76367 18.0273-7.7832 18.3398-7.8418L19.4043-8.03711L20.0684-7.36328L20.0293-6.80664C19.9902-6.30859 20.1172-5.92773 20.6055-5.44922L21.3672-4.70703C21.8457-4.22852 22.4609-4.19922 22.9297-4.66797L25.8398-7.58789C26.3086-8.05664 26.2891-8.65234 25.8105-9.13086L25.0391-9.89258C24.5605-10.3711 24.1895-10.5273 23.7109-10.4883L23.1348-10.4395L22.4902-11.0742L22.7344-12.1973C22.8613-12.7637 22.7051-13.2031 22.1191-13.7891L19.9219-15.9766C16.582-19.2969 12.1484-19.2188 9.25781-16.3281C8.83789-15.918 8.80859-15.3418 9.04297-14.9512C9.27734-14.5898 9.73633-14.3555 10.3809-14.5215C11.8457-14.8633 13.3691-14.9219 14.7949-13.9844L14.209-12.5293C14.0137-12.0508 13.9844-11.6504 14.1113-11.2891L3.04688-0.898438C2.06055 0.0195312 1.98242 0.996094 2.8418 1.86523ZM10.752-15.957C13.1836-17.7344 16.4746-17.4316 18.7012-15.2051L21.1328-12.793C21.3672-12.5586 21.4062-12.373 21.3379-12.0312L21.0156-10.5469L22.5195-9.0625L23.5059-9.12109C23.7598-9.13086 23.8379-9.11133 24.0332-8.91602L24.6094-8.33984L22.168-5.89844L21.5918-6.47461C21.3965-6.66992 21.3672-6.74805 21.377-7.01172L21.4453-7.98828L19.9512-9.47266L18.4277-9.21875C18.1055-9.15039 17.959-9.17969 17.7148-9.41406L15.7129-11.416C15.459-11.6504 15.4297-11.8164 15.5859-12.1875L16.4648-14.2773C14.9023-15.7324 12.8711-16.3574 10.8398-15.7617C10.6836-15.7227 10.625-15.8496 10.752-15.957ZM5.27344 2.30469L4.10156 1.14258C3.63281 0.683594 3.74023 0.341797 4.14062-0.0195312L14.9512-10.1953L16.416-8.71094L6.42578 2.27539C6.07422 2.67578 5.74219 2.77344 5.27344 2.30469Z"/>
  </g>
  <text style="stroke:none;fill:black;font-family:-apple-system,&quot;SF Pro Display&quot;,&quot;SF Pro Text&quot;,Helvetica,sans-serif;font-weight:bold;" transform="matrix(1 0 0 1 1289 1953)">Exporting</text>
  <text style="stroke:none;fill:black;font-family:-apple-system,&quot;SF Pro Display&quot;,&quot;SF Pro Text&quot;,Helvetica,sans-serif;" transform="matrix(1 0 0 1 1289 1971)">Symbols should be outlined when exporting to ensure the</text>
  <text style="stroke:none;fill:black;font-family:-apple-system,&quot;SF Pro Display&quot;,&quot;SF Pro Text&quot;,Helvetica,sans-serif;" transform="matrix(1 0 0 1 1289 1989)">design is preserved when submitting to Xcode.</text>
  <text id="template-version" style="stroke:none;fill:black;font-family:-apple-system,&quot;SF Pro Display&quot;,&quot;SF Pro Text&quot;,Helvetica,sans-serif;text-anchor:end;" transform="matrix(1 0 0 1 3036 1933)">Template v.2.0</text>
  <text style="stroke:none;fill:black;font-family:-apple-system,&quot;SF Pro Display&quot;,&quot;SF Pro Text&quot;,Helvetica,sans-serif;text-anchor:end;" transform="matrix(1 0 0 1 3036 1951)">Requires Xcode 12 or greater</text>
  <text style="stroke:none;fill:black;font-family:-apple-system,&quot;SF Pro Display&quot;,&quot;SF Pro Text&quot;,Helvetica,sans-serif;text-anchor:end;" transform="matrix(1 0 0 1 3036 1969)">Generated from mappin.and.ellipse</text>
  <text style="stroke:none;fill:black;font-family:-apple-system,&quot;SF Pro Display&quot;,&quot;SF Pro Text&quot;,Helvetica,sans-serif;text-anchor:end;" transform="matrix(1 0 0 1 3036 1987)">Typeset at 100 points</text>
  <text style="stroke:none;fill:black;font-family:-apple-system,&quot;SF Pro Display&quot;,&quot;SF Pro Text&quot;,Helvetica,sans-serif;" transform="matrix(1 0 0 1 263 726)">Small</text>
  <text style="stroke:none;fill:black;font-family:-apple-system,&quot;SF Pro Display&quot;,&quot;SF Pro Text&quot;,Helvetica,sans-serif;" transform="matrix(1 0 0 1 263 1156)">Medium</text>
  <text style="stroke:none;fill:black;font-family:-apple-system,&quot;SF Pro Display&quot;,&quot;SF Pro Text&quot;,Helvetica,sans-serif;" transform="matrix(1 0 0 1 263 1586)">Large</text>
 </g>
 <g id="Guides">
  <g id="H-reference" style="fill:#27AAE1;stroke:none;" transform="matrix(1 0 0 1 339 696)">
   <path d="M0.976562 0L3.66211 0L12.9883-24.4629L45.752-24.4629L55.127 0L57.7637 0L30.6152-70.459L28.125-70.459ZM29.3457-67.1387L29.4434-67.1387L44.873-26.709L13.8672-26.709Z"/>
  </g>
  <line id="Baseline-S" style="fill:none;stroke:#27AAE1;opacity:1;stroke-width:0.5;" x1="263" x2="3036" y1="696" y2="696"/>
  <line id="Capline-S" style="fill:none;stroke:#27AAE1;opacity:1;stroke-width:0.5;" x1="263" x2="3036" y1="625.541" y2="625.541"/>
  <g id="H-reference" style="fill:#27AAE1;stroke:none;" transform="matrix(1 0 0 1 339 1126)">
   <path d="M0.976562 0L3.66211 0L12.9883-24.4629L45.752-24.4629L55.127 0L57.7637 0L30.6152-70.459L28.125-70.459ZM29.3457-67.1387L29.4434-67.1387L44.873-26.709L13.8672-26.709Z"/>
  </g>
  <line id="Baseline-M" style="fill:none;stroke:#27AAE1;opacity:1;stroke-width:0.5;" x1="263" x2="3036" y1="1126" y2="1126"/>
  <line id="Capline-M" style="fill:none;stroke:#27AAE1;opacity:1;stroke-width:0.5;" x1="263" x2="3036" y1="1055.54" y2="1055.54"/>
  <g id="H-reference" style="fill:#27AAE1;stroke:none;" transform="matrix(1 0 0 1 339 1556)">
   <path d="M0.976562 0L3.66211 0L12.9883-24.4629L45.752-24.4629L55.127 0L57.7637 0L30.6152-70.459L28.125-70.459ZM29.3457-67.1387L29.4434-67.1387L44.873-26.709L13.8672-26.709Z"/>
  </g>
  <line id="Baseline-L" style="fill:none;stroke:#27AAE1;opacity:1;stroke-width:0.5;" x1="263" x2="3036" y1="1556" y2="1556"/>
  <line id="Capline-L" style="fill:none;stroke:#27AAE1;opacity:1;stroke-width:0.5;" x1="263" x2="3036" y1="1485.54" y2="1485.54"/>
  <line id="left-margin" style="fill:none;stroke:#00AEEF;stroke-width:0.5;opacity:1.0;" x1="1394.74" x2="1394.74" y1="1030.79" y2="1150.12"/>
  <line id="right-margin" style="fill:none;stroke:#00AEEF;stroke-width:0.5;opacity:1.0;" x1="1504.95" x2="1504.95" y1="1030.79" y2="1150.12"/>
 </g>
 <g id="Symbols">
  <g id="Black-L" transform="matrix(1 0 0 1 2845.14 1556)">
   <path d="M88.4277 8.93555C91.9434 8.93555 97.6562-3.51562 97.6562-16.5527L97.6562-54.2969C109.521-58.2031 117.969-69.3848 117.969-82.4707C117.969-98.8281 104.834-112.158 88.4277-112.158C72.0215-112.158 58.8379-98.8281 58.8379-82.4707C58.8379-69.3848 67.2852-58.252 79.0527-54.3457L79.0527-16.5527C79.0527-3.51562 84.8633 8.93555 88.4277 8.93555ZM80.127-80.6152C74.8047-80.6152 70.0195-85.3516 70.0195-90.8203C70.0195-96.2891 74.8047-100.928 80.127-100.928C85.7422-100.928 90.2832-96.2891 90.2832-90.8203C90.2832-85.3516 85.7422-80.6152 80.127-80.6152ZM88.2324 39.3066C134.961 39.3066 165.234 24.5117 165.234 4.05273C165.234-14.1602 140.234-27.4414 109.619-30.3711L109.619-12.6465C129.004-10.6934 145.264-4.54102 145.264 3.51562C145.264 14.3066 121.631 21.3379 88.2324 21.3379C54.834 21.3379 31.2012 14.3066 31.2012 3.51562C31.2012-4.54102 47.5098-10.6934 66.8457-12.6465L66.8457-30.3711C36.2793-27.4414 11.2793-14.1602 11.2793 4.05273C11.2793 24.5117 41.5039 39.3066 88.2324 39.3066Z"/>
  </g>
  <g id="Heavy-L" transform="matrix(1 0 0 1 2552.73 1556)">
   <path d="M84.082 9.27734C87.2559 9.27734 92.2852-2.19727 92.2852-15.9668L92.2852-55.2734C103.711-58.7891 111.865-69.4336 111.865-81.9336C111.865-97.3145 99.5605-109.863 84.082-109.863C68.6523-109.863 56.25-97.3145 56.25-81.9336C56.25-69.4824 64.4531-58.8379 75.7324-55.3223L75.7324-15.9668C75.7324-2.24609 80.8594 9.27734 84.082 9.27734ZM76.2207-80.2734C71.1914-80.2734 66.748-84.7168 66.748-89.8438C66.748-95.0195 71.1914-99.3652 76.2207-99.3652C81.4941-99.3652 85.7422-95.0195 85.7422-89.8438C85.7422-84.7168 81.4941-80.2734 76.2207-80.2734ZM83.9355 37.6953C128.32 37.6953 156.641 23.4863 156.641 4.58984C156.641-12.9883 131.494-25.4395 103.955-27.7344L103.955-12.3047C121.826-10.7422 138.867-4.49219 138.867 3.90625C138.867 14.7461 115.967 21.9727 83.9355 21.9727C51.9043 21.9727 29.0527 14.7949 29.0527 3.90625C29.0527-4.49219 46.0938-10.7422 63.9648-12.3047L63.9648-27.7344C36.4258-25.4395 11.2793-12.9883 11.2793 4.58984C11.2793 23.4863 39.5996 37.6953 83.9355 37.6953Z"/>
  </g>
  <g id="Bold-L" transform="matrix(1 0 0 1 2260.83 1556)">
   <path d="M79.1992 9.7168C82.0801 9.7168 86.2793-0.78125 86.2793-15.2344L86.2793-56.3965C97.168-59.4727 105.029-69.4824 105.029-81.2988C105.029-95.6055 93.6035-107.275 79.1992-107.275C64.8926-107.275 53.3691-95.6055 53.3691-81.2988C53.3691-69.5312 61.2305-59.5215 72.0703-56.3965L72.0703-15.2344C72.0703-0.830078 76.3672 9.7168 79.1992 9.7168ZM71.875-79.8828C67.1875-79.8828 63.0371-83.9844 63.0371-88.7695C63.0371-93.5547 67.1875-97.6074 71.875-97.6074C76.709-97.6074 80.7129-93.5547 80.7129-88.7695C80.7129-83.9844 76.709-79.8828 71.875-79.8828ZM79.1504 35.8887C120.85 35.8887 147.021 22.3633 147.021 5.22461C147.021-11.6699 121.68-23.1934 97.6074-24.7559L97.6074-11.9629C113.818-10.8398 131.689-4.44336 131.689 4.39453C131.689 15.2832 109.619 22.6562 79.1504 22.6562C48.6816 22.6562 26.6113 15.332 26.6113 4.39453C26.6113-4.44336 44.4824-10.8398 60.6934-11.9629L60.6934-24.7559C36.6211-23.1934 11.2793-11.6699 11.2793 5.22461C11.2793 22.3633 37.4512 35.8887 79.1504 35.8887Z"/>
  </g>
  <g id="Semibold-L" transform="matrix(1 0 0 1 1967.41 1556)">
   <path d="M75.8789 9.96094C78.4668 9.96094 82.1777 0.244141 82.1777-14.7461L82.1777-57.1777C92.6758-59.9609 100.342-69.5312 100.342-80.9082C100.342-94.4336 89.502-105.469 75.8789-105.469C62.3047-105.469 51.416-94.4336 51.416-80.9082C51.416-69.5801 59.0332-60.0098 69.5312-57.1777L69.5312-14.7461C69.5312 0.195312 73.291 9.96094 75.8789 9.96094ZM68.8477-79.5898C64.4043-79.5898 60.498-83.4961 60.498-88.0371C60.498-92.5781 64.4043-96.3867 68.8477-96.3867C73.4375-96.3867 77.1973-92.5781 77.1973-88.0371C77.1973-83.4961 73.4375-79.5898 68.8477-79.5898ZM75.8301 34.668C115.723 34.668 140.43 21.582 140.43 5.66406C140.43-10.791 114.941-21.6309 93.2129-22.7051L93.2129-11.7188C108.301-10.9375 126.758-4.39453 126.758 4.6875C126.758 15.6738 105.225 23.1445 75.8301 23.1445C46.4355 23.1445 24.9512 15.7227 24.9512 4.6875C24.9512-4.39453 43.4082-10.9375 58.4961-11.7188L58.4961-22.7051C36.7188-21.6309 11.2793-10.791 11.2793 5.66406C11.2793 21.582 35.9863 34.668 75.8301 34.668Z"/>
  </g>
  <g id="Medium-L" transform="matrix(1 0 0 1 1673.22 1556)">
   <path d="M73.3398 10.2051C75.7324 10.2051 79.0039 0.976562 79.0039-14.4043L79.0039-57.7637C89.2578-60.3027 96.7773-69.5801 96.7773-80.5664C96.7773-93.5547 86.377-104.102 73.3398-104.102C60.3027-104.102 49.9023-93.5547 49.9023-80.5664C49.9023-69.6289 57.373-60.3516 67.627-57.7637L67.627-14.4043C67.627 0.927734 70.9473 10.2051 73.3398 10.2051ZM66.5527-79.3945C62.3047-79.3945 58.5449-83.1055 58.5449-87.4512C58.5449-91.7969 62.3047-95.459 66.5527-95.459C70.9473-95.459 74.5605-91.7969 74.5605-87.4512C74.5605-83.1055 70.9473-79.3945 66.5527-79.3945ZM73.3398 33.7402C111.816 33.7402 135.4 20.9961 135.4 5.95703C135.4-10.1074 109.863-20.459 89.8926-21.1914L89.8926-11.5234C104.102-10.9863 122.998-4.39453 122.998 4.93164C122.998 15.9668 101.904 23.5352 73.3398 23.5352C44.7266 23.5352 23.6816 16.0156 23.6816 4.93164C23.6816-4.39453 42.5293-10.9863 56.7871-11.5234L56.7871-21.1914C36.8164-20.459 11.2793-10.1074 11.2793 5.95703C11.2793 20.9961 34.8633 33.7402 73.3398 33.7402Z"/>
  </g>
  <g id="Regular-L" transform="matrix(1 0 0 1 1379.78 1556)">
   <path d="M70.0195 10.498C72.2168 10.498 74.9023 2.00195 74.9023-13.916L74.9023-58.5449C84.8145-60.791 92.1387-69.6289 92.1387-80.1758C92.1387-92.3828 82.3242-102.344 70.0195-102.344C57.7637-102.344 47.9492-92.3828 47.9492-80.1758C47.9492-69.6777 55.2246-60.791 65.0879-58.5449L65.0879-13.916C65.0879 1.9043 67.8711 10.498 70.0195 10.498ZM63.5742-79.1016C59.5703-79.1016 56.0059-82.6172 56.0059-86.7188C56.0059-90.8203 59.5703-94.2871 63.5742-94.2871C67.7246-94.2871 71.1426-90.8203 71.1426-86.7188C71.1426-82.6172 67.7246-79.1016 63.5742-79.1016ZM70.0684 32.5195C106.738 32.5195 128.857 20.2148 128.857 6.39648C128.857-9.22852 103.174-18.9453 85.5469-19.1406L85.5469-11.2305C98.6816-11.0352 118.115-4.3457 118.115 5.22461C118.115 16.3086 97.5586 24.0234 70.0684 24.0234C42.4805 24.0234 22.0215 16.4062 22.0215 5.22461C22.0215-4.3457 41.4551-11.0352 54.5898-11.2305L54.5898-19.1406C36.9629-18.9453 11.2793-9.22852 11.2793 6.39648C11.2793 20.2148 33.3984 32.5195 70.0684 32.5195Z"/>
  </g>
  <g id="Light-L" transform="matrix(1 0 0 1 1084.51 1556)">
   <path d="M68.6035 9.96094C70.2148 9.96094 72.2168 3.61328 72.2168-8.59375L72.2168-59.7656C81.5918-61.4746 88.5742-69.6777 88.5742-79.4922C88.5742-90.5273 79.6875-99.5117 68.6035-99.5117C57.4707-99.5117 48.6328-90.5273 48.6328-79.4922C48.6328-69.6777 55.6152-61.4746 64.9414-59.7656L64.9414-8.59375C64.9414 3.56445 66.9922 9.96094 68.6035 9.96094ZM62.5488-78.7598C58.9355-78.7598 55.7129-81.9336 55.7129-85.5957C55.7129-89.3066 58.9355-92.4316 62.5488-92.4316C66.2598-92.4316 69.3848-89.3066 69.3848-85.5957C69.3848-81.9336 66.2598-78.7598 62.5488-78.7598ZM68.6035 30.6152C103.467 30.6152 125.977 19.4336 125.977 5.66406C125.977-8.59375 101.27-17.6758 83.3008-17.9199L83.3008-11.8652C97.7051-11.5723 118.018-4.83398 118.018 4.88281C118.018 16.3086 96.6797 24.1211 68.6035 24.1211C40.5273 24.1211 19.1895 16.4062 19.1895 4.88281C19.1895-4.83398 39.5508-11.5723 53.9551-11.8652L53.9551-17.9199C35.9375-17.6758 11.2793-8.59375 11.2793 5.66406C11.2793 19.4336 33.7891 30.6152 68.6035 30.6152Z"/>
  </g>
  <g id="Thin-L" transform="matrix(1 0 0 1 789.723 1556)">
   <path d="M66.6992 9.22852C67.5781 9.22852 68.6523 5.81055 68.6523-1.51367L68.6523-61.4258C77.2949-62.4023 83.8379-69.7266 83.8379-78.5645C83.8379-88.0371 76.2695-95.752 66.6992-95.752C57.1289-95.752 49.5117-88.0371 49.5117-78.5645C49.5117-69.7266 56.1035-62.4023 64.6973-61.4258L64.6973-1.51367C64.6973 5.71289 65.7715 9.22852 66.6992 9.22852ZM61.1816-78.2715C58.0566-78.2715 55.2734-80.957 55.2734-84.1309C55.2734-87.3535 58.0566-90.0391 61.1816-90.0391C64.3555-90.0391 67.041-87.3535 67.041-84.1309C67.041-80.957 64.3555-78.2715 61.1816-78.2715ZM66.6992 28.0273C99.1211 28.0273 122.119 18.3105 122.119 4.63867C122.119-7.76367 98.7793-16.0156 80.2734-16.3086L80.2734-12.6465C96.3867-12.3047 117.92-5.41992 117.92 4.49219C117.92 16.3574 95.459 24.2676 66.6992 24.2676C37.9395 24.2676 15.4785 16.4551 15.4785 4.49219C15.4785-5.41992 37.0605-12.3047 53.1738-12.6465L53.1738-16.3086C34.6191-16.0156 11.2793-7.76367 11.2793 4.63867C11.2793 18.3105 34.3262 28.0273 66.6992 28.0273Z"/>
  </g>
  <g id="Ultralight-L" transform="matrix(1 0 0 1 493.988 1556)">
   <path d="M65.7227 8.88672C66.2598 8.88672 66.7969 6.93359 66.7969 2.09961L66.7969-62.3047C75.0488-62.8906 81.3965-69.7266 81.3965-78.0762C81.3965-86.7676 74.5117-93.8477 65.7227-93.8477C56.9336-93.8477 50-86.7676 50-78.0762C50-69.7266 56.3477-62.8906 64.5996-62.3047L64.5996 2.09961C64.5996 6.83594 65.1367 8.88672 65.7227 8.88672ZM60.4492-78.0273C57.6172-78.0273 55.0781-80.4688 55.0781-83.3984C55.0781-86.3281 57.6172-88.7695 60.4492-88.7695C63.3789-88.7695 65.8691-86.3281 65.8691-83.3984C65.8691-80.4688 63.3789-78.0273 60.4492-78.0273ZM65.7227 26.7578C96.9238 26.7578 120.166 17.7734 120.166 4.15039C120.166-7.32422 97.5098-15.1367 78.7109-15.4785L78.7109-13.0371C95.7031-12.6953 117.871-5.76172 117.871 4.29688C117.871 16.3574 94.873 24.3652 65.7227 24.3652C36.6211 24.3652 13.5742 16.4551 13.5742 4.29688C13.5742-5.76172 35.7422-12.6953 52.7344-13.0371L52.7344-15.4785C33.9355-15.1367 11.2793-7.32422 11.2793 4.15039C11.2793 17.7734 34.5703 26.7578 65.7227 26.7578Z"/>
  </g>
  <g id="Black-M" transform="matrix(1 0 0 1 2859.99 1126)">
   <path d="M73.584-1.80664C76.4648-1.80664 81.4941-11.5234 81.4941-18.75L81.4941-49.2676C91.0156-52.5879 97.7539-61.6211 97.7539-72.168C97.7539-85.5957 87.0605-96.4844 73.584-96.4844C60.2051-96.4844 49.4141-85.5957 49.4141-72.168C49.4141-61.6211 56.1523-52.6367 65.625-49.3164L65.625-18.75C65.625-11.5234 70.7031-1.80664 73.584-1.80664ZM66.8457-70.7031C62.4512-70.7031 58.5938-74.5605 58.5938-79.0039C58.5938-83.4961 62.4512-87.2559 66.8457-87.2559C71.4355-87.2559 75.0977-83.4961 75.0977-79.0039C75.0977-74.5605 71.4355-70.7031 66.8457-70.7031ZM73.3887 23.6816C111.865 23.6816 138.086 12.0117 138.086-5.95703C138.086-20.166 119.434-31.25 91.4062-34.375L91.4062-18.5059C109.082-16.4062 121.191-11.7188 121.191-5.9082C121.191 2.53906 101.465 7.8125 73.3887 7.8125C45.3613 7.8125 25.6348 2.53906 25.6348-5.9082C25.6348-11.7188 37.7441-16.4062 55.4199-18.5059L55.4199-34.375C27.3926-31.25 8.74023-20.166 8.74023-5.95703C8.74023 12.0117 34.9609 23.6816 73.3887 23.6816Z"/>
  </g>
  <g id="Heavy-M" transform="matrix(1 0 0 1 2567.6 1126)">
   <path d="M69.2383-1.26953C71.875-1.26953 76.3184-10.5469 76.3184-19.4824L76.3184-50.0488C85.498-53.0273 91.9922-61.6699 91.9922-71.7773C91.9922-84.4238 81.8848-94.6777 69.2383-94.6777C56.5918-94.6777 46.4355-84.4238 46.4355-71.7773C46.4355-61.7188 52.9785-53.0762 62.0605-50.0977L62.0605-19.4824C62.0605-10.5469 66.5527-1.26953 69.2383-1.26953ZM62.8418-70.4102C58.6914-70.4102 55.0293-74.0723 55.0293-78.2227C55.0293-82.4707 58.6914-86.0352 62.8418-86.0352C67.1387-86.0352 70.6055-82.4707 70.6055-78.2227C70.6055-74.0723 67.1387-70.4102 62.8418-70.4102ZM69.0918 22.4121C105.42 22.4121 129.443 11.084 129.443-5.12695C129.443-19.043 110.352-29.3945 85.791-31.7871L85.791-17.9688C101.514-16.3574 114.209-11.5723 114.209-5.37109C114.209 3.02734 95.459 8.44727 69.0918 8.44727C42.6758 8.44727 23.9746 3.02734 23.9746-5.37109C23.9746-11.5723 36.6699-16.3574 52.3926-17.9688L52.3926-31.7871C27.7832-29.3945 8.74023-19.043 8.74023-5.12695C8.74023 11.084 32.7637 22.4121 69.0918 22.4121Z"/>
  </g>
  <g id="Bold-M" transform="matrix(1 0 0 1 2275.72 1126)">
   <path d="M64.3555-0.634766C66.748-0.634766 70.5566-9.42383 70.5566-20.2637L70.5566-50.9277C79.2969-53.6133 85.5957-61.7676 85.5957-71.3379C85.5957-83.0566 76.1719-92.6758 64.3555-92.6758C52.5391-92.6758 43.1152-83.0566 43.1152-71.3379C43.1152-61.7676 49.3652-53.6621 58.0566-50.9766L58.0566-20.2637C58.0566-9.47266 61.9141-0.634766 64.3555-0.634766ZM58.3496-70.0684C54.4922-70.0684 51.0742-73.4863 51.0742-77.3926C51.0742-81.3477 54.4922-84.668 58.3496-84.668C62.3535-84.668 65.625-81.3477 65.625-77.3926C65.625-73.4863 62.3535-70.0684 58.3496-70.0684ZM64.2578 20.9961C98.1934 20.9961 119.775 10.1074 119.775-4.24805C119.775-17.7734 100.244-27.2949 79.4922-28.9062L79.4922-17.3828C93.0664-16.2598 106.396-11.377 106.396-4.78516C106.396 3.61328 88.7695 9.22852 64.2578 9.22852C39.6973 9.22852 22.1191 3.66211 22.1191-4.78516C22.1191-11.377 35.4492-16.2598 49.0234-17.3828L49.0234-28.9062C28.2715-27.2949 8.74023-17.7734 8.74023-4.24805C8.74023 10.1074 30.3223 20.9961 64.2578 20.9961Z"/>
  </g>
  <g id="Semibold-M" transform="matrix(1 0 0 1 1982.33 1126)">
   <path d="M60.9863-0.244141C63.2324-0.244141 66.5527-8.64258 66.5527-20.8008L66.5527-51.5625C75.0488-53.9551 81.1523-61.8164 81.1523-70.9961C81.1523-82.1777 72.2168-91.2598 60.9863-91.2598C49.7559-91.2598 40.7715-82.1777 40.7715-70.9961C40.7715-61.8164 46.9238-54.0039 55.3223-51.5625L55.3223-20.8008C55.3223-8.69141 58.6914-0.244141 60.9863-0.244141ZM55.2734-69.8242C51.6113-69.8242 48.3887-73.0957 48.3887-76.8066C48.3887-80.5664 51.6113-83.6914 55.2734-83.6914C59.082-83.6914 62.1582-80.5664 62.1582-76.8066C62.1582-73.0957 59.082-69.8242 55.2734-69.8242ZM60.9375 20.0684C93.2617 20.0684 113.135 9.42383 113.135-3.61328C113.135-16.9434 93.2617-25.8301 75.1465-26.9531L75.1465-16.9922C87.207-16.2109 100.977-11.2793 100.977-4.39453C100.977 4.00391 84.1797 9.7168 60.9375 9.7168C37.6465 9.7168 20.8496 4.05273 20.8496-4.39453C20.8496-11.2793 34.668-16.2109 46.6797-16.9922L46.6797-26.9531C28.6133-25.8301 8.74023-16.9434 8.74023-3.61328C8.74023 9.42383 28.6133 20.0684 60.9375 20.0684Z"/>
  </g>
  <g id="Medium-M" transform="matrix(1 0 0 1 1688.16 1126)">
   <path d="M58.3984 0.0976562C60.5469 0.0976562 63.5254-8.05664 63.5254-21.2402L63.5254-52.002C71.7773-54.248 77.7832-61.8164 77.7832-70.752C77.7832-81.4941 69.1895-90.2344 58.3984-90.2344C47.6562-90.2344 39.0625-81.4941 39.0625-70.752C39.0625-61.8652 45.0195-54.2969 53.2715-52.0508L53.2715-21.2402C53.2715-8.10547 56.2988 0.0976562 58.3984 0.0976562ZM52.9297-69.6777C49.4141-69.6777 46.2891-72.7539 46.2891-76.3672C46.2891-79.9316 49.4141-82.959 52.9297-82.959C56.5918-82.959 59.5703-79.9316 59.5703-76.3672C59.5703-72.7539 56.5918-69.6777 52.9297-69.6777ZM58.3984 19.3359C89.4531 19.3359 108.057 8.88672 108.057-3.125C108.057-16.2598 87.9395-24.7559 71.875-25.4395L71.875-16.6992C82.8125-16.2109 96.9238-11.1816 96.9238-4.10156C96.9238 4.29688 80.7129 10.1074 58.3984 10.1074C36.084 10.1074 19.9219 4.3457 19.9219-4.10156C19.9219-11.1816 34.0332-16.2109 44.9219-16.6992L44.9219-25.4395C28.8574-24.7559 8.74023-16.2598 8.74023-3.125C8.74023 8.88672 27.3438 19.3359 58.3984 19.3359Z"/>
  </g>
  <g id="Regular-M" transform="matrix(1 0 0 1 1394.74 1126)">
   <path d="M55.0781 0.488281C57.0801 0.488281 59.6191-7.32422 59.6191-21.7773L59.6191-52.6367C67.5781-54.6387 73.4375-61.8652 73.4375-70.459C73.4375-80.5664 65.2832-88.8672 55.0781-88.8672C44.9219-88.8672 36.7676-80.5664 36.7676-70.459C36.7676-61.9141 42.5781-54.6875 50.5371-52.6367L50.5371-21.7773C50.5371-7.37305 53.125 0.488281 55.0781 0.488281ZM49.8535-69.4336C46.5332-69.4336 43.6035-72.3633 43.6035-75.7812C43.6035-79.1504 46.5332-82.0312 49.8535-82.0312C53.3203-82.0312 56.1523-79.1504 56.1523-75.7812C56.1523-72.3633 53.3203-69.4336 49.8535-69.4336ZM55.127 18.3594C84.5703 18.3594 101.465 8.20312 101.465-2.53906C101.465-15.4297 81.0059-23.291 67.5781-23.4375L67.5781-16.3086C77.002-16.1621 91.6016-11.0352 91.6016-3.71094C91.6016 4.6875 76.123 10.6445 55.127 10.6445C34.0332 10.6445 18.6523 4.78516 18.6523-3.71094C18.6523-11.0352 33.2031-16.1621 42.627-16.3086L42.627-23.4375C29.1992-23.291 8.74023-15.4297 8.74023-2.53906C8.74023 8.20312 25.6836 18.3594 55.127 18.3594Z"/>
  </g>
  <g id="Light-M" transform="matrix(1 0 0 1 1099.3 1126)">
   <path d="M53.8086 0C55.3223 0 57.1777-5.85938 57.1777-16.9434L57.1777-53.7109C64.6973-55.2734 70.2148-61.9141 70.2148-69.8242C70.2148-78.9062 62.9395-86.3281 53.8086-86.3281C44.6777-86.3281 37.4023-78.9062 37.4023-69.8242C37.4023-61.9141 42.9199-55.2734 50.3906-53.7109L50.3906-16.9434C50.3906-5.9082 52.2949 0 53.8086 0ZM48.9258-69.1406C45.9473-69.1406 43.3105-71.7285 43.3105-74.7559C43.3105-77.832 45.9473-80.3711 48.9258-80.3711C52.002-80.3711 54.541-77.832 54.541-74.7559C54.541-71.7285 52.002-69.1406 48.9258-69.1406ZM53.8086 16.6504C81.6406 16.6504 98.9258 7.4707 98.9258-3.22266C98.9258-14.8438 79.3457-22.168 65.5762-22.3633L65.5762-16.8457C76.123-16.6504 91.5039-11.4746 91.5039-4.00391C91.5039 4.73633 75.3418 10.7422 53.8086 10.7422C32.2754 10.7422 16.1133 4.78516 16.1133-4.00391C16.1133-11.4746 31.4941-16.6504 42.0898-16.8457L42.0898-22.3633C28.3203-22.168 8.74023-14.8438 8.74023-3.22266C8.74023 7.4707 26.0254 16.6504 53.8086 16.6504Z"/>
  </g>
  <g id="Thin-M" transform="matrix(1 0 0 1 804.298 1126)">
   <path d="M52.0996-0.634766C52.9785-0.634766 54.0039-3.90625 54.0039-10.6445L54.0039-55.1758C60.8398-56.0547 66.0156-61.9629 66.0156-68.9941C66.0156-76.709 59.8633-82.959 52.0996-82.959C44.3359-82.959 38.2324-76.709 38.2324-68.9941C38.2324-61.9629 43.3594-56.1035 50.1953-55.1758L50.1953-10.6445C50.1953-3.95508 51.2695-0.634766 52.0996-0.634766ZM47.7051-68.7012C45.166-68.7012 42.9688-70.8984 42.9688-73.4375C42.9688-76.0254 45.166-78.2227 47.7051-78.2227C50.293-78.2227 52.4902-76.0254 52.4902-73.4375C52.4902-70.8984 50.293-68.7012 47.7051-68.7012ZM52.0996 14.3555C77.7344 14.3555 95.5078 6.49414 95.5078-4.10156C95.5078-14.1113 77.0996-20.7031 62.8418-20.8984L62.8418-17.5293C75-17.334 91.4062-12.0117 91.4062-4.3457C91.4062 4.73633 74.2676 10.8398 52.0996 10.8398C29.9805 10.8398 12.793 4.78516 12.793-4.3457C12.793-12.0117 29.248-17.334 41.3574-17.5293L41.3574-20.8984C27.0996-20.7031 8.74023-14.1113 8.74023-4.10156C8.74023 6.49414 26.4648 14.3555 52.0996 14.3555Z"/>
  </g>
  <g id="Ultralight-M" transform="matrix(1 0 0 1 508.466 1126)">
   <path d="M51.2207-0.927734C51.7578-0.927734 52.3438-2.88086 52.3438-7.37305L52.3438-55.957C58.8867-56.4941 63.8672-61.9629 63.8672-68.5547C63.8672-75.5371 58.3008-81.25 51.2207-81.25C44.1895-81.25 38.623-75.5371 38.623-68.5547C38.623-61.9629 43.6035-56.4941 50.0977-55.957L50.0977-7.37305C50.0977-2.97852 50.6836-0.927734 51.2207-0.927734ZM47.0703-68.457C44.7754-68.457 42.7734-70.459 42.7734-72.8027C42.7734-75.1465 44.7754-77.0996 47.0703-77.0996C49.4141-77.0996 51.416-75.1465 51.416-72.8027C51.416-70.459 49.4141-68.457 47.0703-68.457ZM51.2207 13.1836C75.7812 13.1836 93.75 6.00586 93.75-4.58984C93.75-13.7207 75.9766-19.9219 61.4746-20.166L61.4746-17.9199C74.3652-17.627 91.3574-12.3047 91.3574-4.54102C91.3574 4.73633 73.6816 10.9375 51.2207 10.9375C28.7598 10.9375 11.084 4.83398 11.084-4.54102C11.084-12.3047 28.0762-17.627 41.0156-17.9199L41.0156-20.166C26.5137-19.9219 8.74023-13.7207 8.74023-4.58984C8.74023 6.00586 26.709 13.1836 51.2207 13.1836Z"/>
  </g>
  <g id="Black-S" transform="matrix(1 0 0 1 2876.22 696)">
   <path d="M57.3242-8.98438C59.5703-8.98438 63.4766-16.6016 63.4766-22.4609L63.4766-46.2891C70.8984-48.8281 76.1719-55.9082 76.1719-64.1602C76.1719-74.6094 67.8223-83.1055 57.3242-83.1055C46.875-83.1055 38.4766-74.6094 38.4766-64.1602C38.4766-55.9082 43.75-48.877 51.123-46.2891L51.123-22.4609C51.123-16.6016 55.0781-8.98438 57.3242-8.98438ZM52.0508-62.9883C48.6328-62.9883 45.6055-66.0156 45.6055-69.4824C45.6055-72.998 48.6328-75.9277 52.0508-75.9277C55.6152-75.9277 58.4961-72.998 58.4961-69.4824C58.4961-66.0156 55.6152-62.9883 52.0508-62.9883ZM57.1777 10.8398C87.1582 10.8398 107.52 1.70898 107.52-12.207C107.52-23.3398 92.8711-31.9824 71.1914-34.375L71.1914-22.0703C84.8633-20.459 94.3848-16.7969 94.3848-12.207C94.3848-5.61523 79.0039-1.46484 57.1777-1.46484C35.3516-1.46484 19.9707-5.61523 19.9707-12.207C19.9707-16.7969 29.4922-20.459 43.1641-22.0703L43.1641-34.375C21.4844-31.9824 6.83594-23.3398 6.83594-12.207C6.83594 1.70898 27.1973 10.8398 57.1777 10.8398Z"/>
  </g>
  <g id="Heavy-S" transform="matrix(1 0 0 1 2582.66 696)">
   <path d="M54.1504-8.49609C56.25-8.49609 59.8145-16.0156 59.8145-23.5352L59.8145-46.7773C66.9922-49.1699 72.1191-55.957 72.1191-63.916C72.1191-73.877 64.1602-82.0312 54.1504-82.0312C44.1406-82.0312 36.1328-73.877 36.1328-63.916C36.1328-55.957 41.2598-49.1699 48.4375-46.7773L48.4375-23.5352C48.4375-16.0156 52.002-8.49609 54.1504-8.49609ZM49.0723-62.793C45.8008-62.793 42.9199-65.6738 42.9199-68.9941C42.9199-72.3633 45.8008-75.1465 49.0723-75.1465C52.4902-75.1465 55.2246-72.3633 55.2246-68.9941C55.2246-65.6738 52.4902-62.793 49.0723-62.793ZM54.0039 10.0586C82.5684 10.0586 101.221 1.12305 101.221-11.5234C101.221-22.5586 86.1328-30.6641 67.1387-32.5195L67.1387-21.6309C79.1504-20.3613 89.0625-16.6504 89.0625-11.7676C89.0625-5.22461 74.5117-0.976562 54.0039-0.976562C33.4961-0.976562 18.9941-5.22461 18.9941-11.7676C18.9941-16.6504 28.8574-20.3613 40.918-21.6309L40.918-32.5195C21.9238-30.6641 6.83594-22.5586 6.83594-11.5234C6.83594 1.12305 25.4883 10.0586 54.0039 10.0586Z"/>
  </g>
  <g id="Bold-S" transform="matrix(1 0 0 1 2289.49 696)">
   <path d="M50.5371-8.00781C52.5879-8.00781 55.6641-15.332 55.6641-24.707L55.6641-47.3145C62.6465-49.5117 67.627-56.0059 67.627-63.6719C67.627-73.0957 60.0586-80.7617 50.5371-80.7617C41.1133-80.7617 33.4961-73.0957 33.4961-63.6719C33.4961-56.0059 38.4766-49.5117 45.4102-47.3145L45.4102-24.707C45.4102-15.3809 48.5352-8.00781 50.5371-8.00781ZM45.8008-62.5977C42.6758-62.5977 39.9414-65.332 39.9414-68.457C39.9414-71.6309 42.6758-74.3164 45.8008-74.3164C48.9746-74.3164 51.6113-71.6309 51.6113-68.457C51.6113-65.332 48.9746-62.5977 45.8008-62.5977ZM50.4883 9.22852C77.3926 9.22852 94.1406 0.439453 94.1406-10.7422C94.1406-21.6797 78.5645-29.1992 62.5488-30.4688L62.5488-21.0938C72.8027-20.2637 83.0566-16.4551 83.0566-11.2793C83.0566-4.78516 69.5312-0.390625 50.4883-0.390625C31.4453-0.390625 17.9199-4.73633 17.9199-11.2793C17.9199-16.4551 28.1738-20.2637 38.4277-21.0938L38.4277-30.4688C22.4121-29.1992 6.83594-21.6797 6.83594-10.7422C6.83594 0.439453 23.584 9.22852 50.4883 9.22852Z"/>
  </g>
  <g id="Semibold-S" transform="matrix(1 0 0 1 1995.22 696)">
   <path d="M48.0957-7.61719C50.0488-7.61719 52.832-14.8926 52.832-25.5371L52.832-47.7051C59.6191-49.707 64.502-56.0547 64.502-63.4766C64.502-72.5586 57.2266-79.9316 48.0957-79.9316C39.0137-79.9316 31.6895-72.5586 31.6895-63.4766C31.6895-56.0547 36.5723-49.7559 43.3105-47.7051L43.3105-25.5371C43.3105-14.8926 46.1914-7.61719 48.0957-7.61719ZM43.5059-62.4512C40.5273-62.4512 37.8906-65.0879 37.8906-68.1152C37.8906-71.1426 40.5273-73.7305 43.5059-73.7305C46.582-73.7305 49.1211-71.1426 49.1211-68.1152C49.1211-65.0879 46.582-62.4512 43.5059-62.4512ZM48.0469 8.64258C73.877 8.64258 89.2578-0.0488281 89.2578-10.2051C89.2578-21.0449 73.3887-28.2227 59.4238-29.0527L59.4238-20.752C68.4082-20.166 78.9551-16.3086 78.9551-10.9863C78.9551-4.49219 66.0645 0 48.0469 0C29.9805 0 17.1387-4.44336 17.1387-10.9863C17.1387-16.3086 27.6855-20.166 36.6699-20.752L36.6699-29.0527C22.7051-28.2227 6.83594-21.0449 6.83594-10.2051C6.83594-0.0488281 22.2168 8.64258 48.0469 8.64258Z"/>
  </g>
  <g id="Medium-S" transform="matrix(1 0 0 1 1700.36 696)">
   <path d="M46.2402-7.37305C48.0957-7.37305 50.6836-14.5508 50.6836-26.1719L50.6836-47.998C57.3242-49.9023 62.1582-56.0547 62.1582-63.3301C62.1582-72.1191 55.0781-79.2969 46.2402-79.2969C37.4023-79.2969 30.3223-72.1191 30.3223-63.3301C30.3223-56.1035 35.1074-49.9512 41.748-47.998L41.748-26.1719C41.748-14.5508 44.3848-7.37305 46.2402-7.37305ZM41.748-62.3535C38.8672-62.3535 36.3281-64.8926 36.3281-67.8223C36.3281-70.8008 38.8672-73.291 41.748-73.291C44.7754-73.291 47.2168-70.8008 47.2168-67.8223C47.2168-64.8926 44.7754-62.3535 41.748-62.3535ZM46.1914 8.1543C71.1914 8.1543 85.5469-0.390625 85.5469-9.81445C85.5469-20.6055 69.4336-27.4414 57.0312-27.9297L57.0312-20.5078C65.0879-20.1172 75.8301-16.2109 75.8301-10.7422C75.8301-4.24805 63.4277 0.292969 46.1914 0.292969C28.9062 0.292969 16.5527-4.19922 16.5527-10.7422C16.5527-16.2109 27.2949-20.1172 35.3516-20.5078L35.3516-27.9297C22.9492-27.4414 6.83594-20.6055 6.83594-9.81445C6.83594-0.390625 21.2402 8.1543 46.1914 8.1543Z"/>
  </g>
  <g id="Regular-S" transform="matrix(1 0 0 1 1406.05 696)">
   <path d="M43.7988-7.03125C45.5566-7.03125 47.8516-14.0625 47.8516-27.002L47.8516-48.3398C54.3457-50.1465 59.082-56.1035 59.082-63.1348C59.082-71.582 52.2949-78.4668 43.7988-78.4668C35.3027-78.4668 28.5156-71.582 28.5156-63.1348C28.5156-56.1035 33.2031-50.1953 39.6973-48.3887L39.6973-27.002C39.6973-14.1113 41.9922-7.03125 43.7988-7.03125ZM39.502-62.207C36.7188-62.207 34.2773-64.6484 34.2773-67.4805C34.2773-70.3125 36.7188-72.7051 39.502-72.7051C42.3828-72.7051 44.7266-70.3125 44.7266-67.4805C44.7266-64.6484 42.3828-62.207 39.502-62.207ZM43.7988 7.61719C67.6758 7.61719 80.7617-0.830078 80.7617-9.27734C80.7617-19.9707 64.3066-26.416 53.9551-26.5625L53.9551-20.166C60.7422-20.0684 71.7773-16.0645 71.7773-10.4004C71.7773-3.95508 60.0098 0.634766 43.7988 0.634766C27.4902 0.634766 15.8203-3.90625 15.8203-10.4004C15.8203-16.0645 26.8555-20.0684 33.6426-20.166L33.6426-26.5625C23.291-26.416 6.83594-19.9707 6.83594-9.27734C6.83594-0.830078 19.9219 7.61719 43.7988 7.61719Z"/>
  </g>
  <g id="Light-S" transform="matrix(1 0 0 1 1110.48 696)">
   <path d="M42.6758-7.42188C43.9941-7.42188 45.752-12.793 45.752-22.7539L45.752-49.2676C51.8066-50.6836 56.25-56.1035 56.25-62.5977C56.25-70.0684 50.1953-76.2207 42.6758-76.2207C35.1074-76.2207 29.0527-70.0684 29.0527-62.5977C29.0527-56.1523 33.4961-50.6836 39.5508-49.2676L39.5508-22.7539C39.5508-12.8418 41.3086-7.42188 42.6758-7.42188ZM38.6719-61.9141C36.2305-61.9141 34.0332-64.0625 34.0332-66.6016C34.0332-69.0918 36.2305-71.2402 38.6719-71.2402C41.2109-71.2402 43.3105-69.0918 43.3105-66.6016C43.3105-64.0625 41.2109-61.9141 38.6719-61.9141ZM42.627 6.05469C65.0879 6.05469 78.4668-1.51367 78.4668-9.86328C78.4668-19.4824 62.793-25.4395 52.1484-25.5859L52.1484-20.6055C59.9609-20.5078 71.7285-16.4551 71.7285-10.6445C71.7285-3.95508 59.3262 0.732422 42.627 0.732422C25.9766 0.732422 13.5742-3.90625 13.5742-10.6445C13.5742-16.4551 25.3418-20.5078 33.1543-20.6055L33.1543-25.5859C22.5098-25.4395 6.83594-19.4824 6.83594-9.86328C6.83594-1.51367 20.2148 6.05469 42.627 6.05469Z"/>
  </g>
  <g id="Thin-S" transform="matrix(1 0 0 1 815.285 696)">
   <path d="M41.1621-8.00781C41.9434-8.00781 42.9199-11.0352 42.9199-17.1387L42.9199-50.5859C48.3887-51.416 52.4902-56.1523 52.4902-61.8652C52.4902-68.1152 47.4609-73.2422 41.1621-73.2422C34.8145-73.2422 29.7852-68.1152 29.7852-61.8652C29.7852-56.1523 33.8867-51.416 39.3555-50.5859L39.3555-17.1387C39.3555-11.084 40.332-8.00781 41.1621-8.00781ZM37.5977-61.5234C35.5469-61.5234 33.6914-63.3301 33.6914-65.4297C33.6914-67.5293 35.5469-69.3359 37.5977-69.3359C39.7461-69.3359 41.5039-67.5293 41.5039-65.4297C41.5039-63.3301 39.7461-61.5234 37.5977-61.5234ZM41.1621 4.05273C61.6211 4.05273 75.4395-2.34375 75.4395-10.6934C75.4395-18.8477 60.8398-24.1211 49.7559-24.3164L49.7559-21.2402C58.9355-21.0449 71.6309-16.9434 71.6309-10.9863C71.6309-3.90625 58.3496 0.830078 41.1621 0.830078C23.9258 0.830078 10.6445-3.85742 10.6445-10.9863C10.6445-16.9434 23.3398-21.0449 32.5195-21.2402L32.5195-24.3164C21.4844-24.1211 6.83594-18.8477 6.83594-10.6934C6.83594-2.34375 20.6543 4.05273 41.1621 4.05273Z"/>
  </g>
  <g id="Ultralight-S" transform="matrix(1 0 0 1 519.355 696)">
   <path d="M40.3809-8.30078C40.8691-8.30078 41.4551-10.1562 41.4551-14.3066L41.4551-51.2695C46.6309-51.8066 50.5859-56.1523 50.5859-61.4746C50.5859-67.1387 46.0938-71.7285 40.3809-71.7285C34.668-71.7285 30.127-67.1387 30.127-61.4746C30.127-56.1523 34.082-51.8066 39.3066-51.2695L39.3066-14.3066C39.3066-10.2051 39.8438-8.30078 40.3809-8.30078ZM37.0605-61.3281C35.2051-61.3281 33.5449-62.9395 33.5449-64.8438C33.5449-66.748 35.2051-68.3594 37.0605-68.3594C38.9648-68.3594 40.5273-66.748 40.5273-64.8438C40.5273-62.9395 38.9648-61.3281 37.0605-61.3281ZM40.3809 3.02734C59.8633 3.02734 73.877-2.7832 73.877-11.084C73.877-18.5059 59.8145-23.4375 48.5352-23.6328L48.5352-21.582C58.3984-21.3867 71.582-17.1875 71.582-11.1328C71.582-3.90625 57.8613 0.927734 40.3809 0.927734C22.8516 0.927734 9.13086-3.85742 9.13086-11.1328C9.13086-17.1875 22.3145-21.3867 32.2266-21.582L32.2266-23.6328C20.9473-23.4375 6.83594-18.5059 6.83594-11.084C6.83594-2.7832 20.8496 3.02734 40.3809 3.02734Z"/>
  </g>
 </g>
</svg>
