<?xml version="1.0" encoding="UTF-8"?>
<!--Generator: Apple Native CoreSVG 149-->
<!DOCTYPE svg
PUBLIC "-//W3C//DTD SVG 1.1//EN"
       "http://www.w3.org/Graphics/SVG/1.1/DTD/svg11.dtd">
<svg version="1.1" xmlns="http://www.w3.org/2000/svg" xmlns:xlink="http://www.w3.org/1999/xlink" width="3300" height="2200">
 <!--glyph: "uni100300.medium", point size: 100.000000, font version: "Version 16.0d18e1", template writer version: "8"-->
 <g id="Notes">
  <rect height="2200" id="artboard" style="fill:white;opacity:1" width="3300" x="0" y="0"/>
  <line id="" style="fill:none;stroke:black;opacity:1;stroke-width:0.5;" x1="263" x2="3036" y1="292" y2="292"/>
  <text style="stroke:none;fill:black;font-family:-apple-system,&quot;SF Pro Display&quot;,&quot;SF Pro Text&quot;,Helvetica,sans-serif;font-weight:bold;" transform="matrix(1 0 0 1 263 322)">Weight/Scale Variations</text>
  <text style="stroke:none;fill:black;font-family:-apple-system,&quot;SF Pro Display&quot;,&quot;SF Pro Text&quot;,Helvetica,sans-serif;text-anchor:middle;" transform="matrix(1 0 0 1 559.711 322)">Ultralight</text>
  <text style="stroke:none;fill:black;font-family:-apple-system,&quot;SF Pro Display&quot;,&quot;SF Pro Text&quot;,Helvetica,sans-serif;text-anchor:middle;" transform="matrix(1 0 0 1 856.422 322)">Thin</text>
  <text style="stroke:none;fill:black;font-family:-apple-system,&quot;SF Pro Display&quot;,&quot;SF Pro Text&quot;,Helvetica,sans-serif;text-anchor:middle;" transform="matrix(1 0 0 1 1153.13 322)">Light</text>
  <text style="stroke:none;fill:black;font-family:-apple-system,&quot;SF Pro Display&quot;,&quot;SF Pro Text&quot;,Helvetica,sans-serif;text-anchor:middle;" transform="matrix(1 0 0 1 1449.84 322)">Regular</text>
  <text style="stroke:none;fill:black;font-family:-apple-system,&quot;SF Pro Display&quot;,&quot;SF Pro Text&quot;,Helvetica,sans-serif;text-anchor:middle;" transform="matrix(1 0 0 1 1746.56 322)">Medium</text>
  <text style="stroke:none;fill:black;font-family:-apple-system,&quot;SF Pro Display&quot;,&quot;SF Pro Text&quot;,Helvetica,sans-serif;text-anchor:middle;" transform="matrix(1 0 0 1 2043.27 322)">Semibold</text>
  <text style="stroke:none;fill:black;font-family:-apple-system,&quot;SF Pro Display&quot;,&quot;SF Pro Text&quot;,Helvetica,sans-serif;text-anchor:middle;" transform="matrix(1 0 0 1 2339.98 322)">Bold</text>
  <text style="stroke:none;fill:black;font-family:-apple-system,&quot;SF Pro Display&quot;,&quot;SF Pro Text&quot;,Helvetica,sans-serif;text-anchor:middle;" transform="matrix(1 0 0 1 2636.69 322)">Heavy</text>
  <text style="stroke:none;fill:black;font-family:-apple-system,&quot;SF Pro Display&quot;,&quot;SF Pro Text&quot;,Helvetica,sans-serif;text-anchor:middle;" transform="matrix(1 0 0 1 2933.4 322)">Black</text>
  <line id="" style="fill:none;stroke:black;opacity:1;stroke-width:0.5;" x1="263" x2="3036" y1="1903" y2="1903"/>
  <g id="" transform="matrix(1 0 0 1 263 1933)">
   <path d="M9.24805 0.830078C13.5547 0.830078 17.1387-2.74414 17.1387-7.05078C17.1387-11.3574 13.5449-14.9316 9.23828-14.9316C4.94141-14.9316 1.36719-11.3574 1.36719-7.05078C1.36719-2.74414 4.95117 0.830078 9.24805 0.830078ZM9.24805-0.654297C5.70312-0.654297 2.87109-3.49609 2.87109-7.05078C2.87109-10.6055 5.69336-13.4473 9.23828-13.4473C12.793-13.4473 15.6348-10.6055 15.6445-7.05078C15.6543-3.49609 12.8027-0.654297 9.24805-0.654297ZM6.39648-6.31836L8.50586-6.31836L8.50586-4.19922C8.50586-3.75977 8.79883-3.45703 9.22852-3.45703C9.67773-3.45703 9.9707-3.75977 9.9707-4.19922L9.9707-6.31836L12.0996-6.31836C12.5391-6.31836 12.8418-6.61133 12.8418-7.04102C12.8418-7.48047 12.5391-7.7832 12.0996-7.7832L9.9707-7.7832L9.9707-9.89258C9.9707-10.3418 9.67773-10.6445 9.22852-10.6445C8.79883-10.6445 8.50586-10.3418 8.50586-9.89258L8.50586-7.7832L6.39648-7.7832C5.94727-7.7832 5.64453-7.48047 5.64453-7.04102C5.64453-6.61133 5.94727-6.31836 6.39648-6.31836Z"/>
  </g>
  <g id="" transform="matrix(1 0 0 1 281.506 1933)">
   <path d="M11.709 2.91016C17.1582 2.91016 21.6699-1.61133 21.6699-7.05078C21.6699-12.5 17.1484-17.0117 11.6992-17.0117C6.25977-17.0117 1.74805-12.5 1.74805-7.05078C1.74805-1.61133 6.26953 2.91016 11.709 2.91016ZM11.709 1.25C7.09961 1.25 3.41797-2.44141 3.41797-7.05078C3.41797-11.6602 7.08984-15.3516 11.6992-15.3516C16.3086-15.3516 20-11.6602 20.0098-7.05078C20.0195-2.44141 16.3184 1.25 11.709 1.25ZM7.98828-6.23047L10.8789-6.23047L10.8789-3.32031C10.8789-2.83203 11.2109-2.5 11.6895-2.5C12.1777-2.5 12.5195-2.83203 12.5195-3.32031L12.5195-6.23047L15.4297-6.23047C15.918-6.23047 16.25-6.5625 16.25-7.04102C16.25-7.5293 15.918-7.87109 15.4297-7.87109L12.5195-7.87109L12.5195-10.7617C12.5195-11.2695 12.1777-11.6016 11.6895-11.6016C11.2109-11.6016 10.8789-11.2598 10.8789-10.7617L10.8789-7.87109L7.98828-7.87109C7.48047-7.87109 7.14844-7.5293 7.14844-7.04102C7.14844-6.5625 7.49023-6.23047 7.98828-6.23047Z"/>
  </g>
  <g id="" transform="matrix(1 0 0 1 304.924 1933)">
   <path d="M14.9707 5.66406C21.9336 5.66406 27.6953-0.0976562 27.6953-7.05078C27.6953-14.0137 21.9238-19.7754 14.9609-19.7754C8.00781-19.7754 2.25586-14.0137 2.25586-7.05078C2.25586-0.0976562 8.01758 5.66406 14.9707 5.66406ZM14.9707 3.84766C8.93555 3.84766 4.08203-1.01562 4.08203-7.05078C4.08203-13.0957 8.92578-17.9492 14.9609-17.9492C21.0059-17.9492 25.8594-13.0957 25.8691-7.05078C25.8789-1.01562 21.0156 3.84766 14.9707 3.84766ZM10.0586-6.14258L14.0625-6.14258L14.0625-2.12891C14.0625-1.5918 14.4336-1.2207 14.9512-1.2207C15.4883-1.2207 15.8594-1.5918 15.8594-2.12891L15.8594-6.14258L19.8828-6.14258C20.4102-6.14258 20.791-6.51367 20.791-7.03125C20.791-7.56836 20.4199-7.94922 19.8828-7.94922L15.8594-7.94922L15.8594-11.9531C15.8594-12.5098 15.4883-12.8809 14.9512-12.8809C14.4336-12.8809 14.0625-12.5 14.0625-11.9531L14.0625-7.94922L10.0586-7.94922C9.50195-7.94922 9.13086-7.56836 9.13086-7.03125C9.13086-6.51367 9.51172-6.14258 10.0586-6.14258Z"/>
  </g>
  <text style="stroke:none;fill:black;font-family:-apple-system,&quot;SF Pro Display&quot;,&quot;SF Pro Text&quot;,Helvetica,sans-serif;font-weight:bold;" transform="matrix(1 0 0 1 263 1953)">Design Variations</text>
  <text style="stroke:none;fill:black;font-family:-apple-system,&quot;SF Pro Display&quot;,&quot;SF Pro Text&quot;,Helvetica,sans-serif;" transform="matrix(1 0 0 1 263 1971)">Symbols are supported in up to nine weights and three scales.</text>
  <text style="stroke:none;fill:black;font-family:-apple-system,&quot;SF Pro Display&quot;,&quot;SF Pro Text&quot;,Helvetica,sans-serif;" transform="matrix(1 0 0 1 263 1989)">For optimal layout with text and other symbols, vertically align</text>
  <text style="stroke:none;fill:black;font-family:-apple-system,&quot;SF Pro Display&quot;,&quot;SF Pro Text&quot;,Helvetica,sans-serif;" transform="matrix(1 0 0 1 263 2007)">symbols with the adjacent text.</text>
  <line id="" style="fill:none;stroke:#00AEEF;stroke-width:0.5;opacity:1.0;" x1="776" x2="776" y1="1919" y2="1933"/>
  <g id="" transform="matrix(1 0 0 1 776 1933)">
   <path d="M3.31055 0.126953C3.82812 0.126953 4.08203-0.0683594 4.26758-0.605469L5.52734-4.0625L11.2891-4.0625L12.5488-0.605469C12.7344-0.0683594 12.9883 0.126953 13.4961 0.126953C14.0137 0.126953 14.3457-0.185547 14.3457-0.673828C14.3457-0.839844 14.3164-0.986328 14.2383-1.20117L9.6582-13.3887C9.43359-13.9941 9.0332-14.2871 8.4082-14.2871C7.80273-14.2871 7.39258-13.9941 7.17773-13.3984L2.59766-1.19141C2.51953-0.976562 2.49023-0.830078 2.49023-0.664062C2.49023-0.175781 2.80273 0.126953 3.31055 0.126953ZM6.00586-5.53711L8.37891-12.1094L8.42773-12.1094L10.8008-5.53711Z"/>
  </g>
  <line id="" style="fill:none;stroke:#00AEEF;stroke-width:0.5;opacity:1.0;" x1="792.836" x2="792.836" y1="1919" y2="1933"/>
  <text style="stroke:none;fill:black;font-family:-apple-system,&quot;SF Pro Display&quot;,&quot;SF Pro Text&quot;,Helvetica,sans-serif;font-weight:bold;" transform="matrix(1 0 0 1 776 1953)">Margins</text>
  <text style="stroke:none;fill:black;font-family:-apple-system,&quot;SF Pro Display&quot;,&quot;SF Pro Text&quot;,Helvetica,sans-serif;" transform="matrix(1 0 0 1 776 1971)">Leading and trailing margins on the left and right side of each symbol</text>
  <text style="stroke:none;fill:black;font-family:-apple-system,&quot;SF Pro Display&quot;,&quot;SF Pro Text&quot;,Helvetica,sans-serif;" transform="matrix(1 0 0 1 776 1989)">can be adjusted by modifying the x-location of the margin guidelines.</text>
  <text style="stroke:none;fill:black;font-family:-apple-system,&quot;SF Pro Display&quot;,&quot;SF Pro Text&quot;,Helvetica,sans-serif;" transform="matrix(1 0 0 1 776 2007)">Modifications are automatically applied proportionally to all</text>
  <text style="stroke:none;fill:black;font-family:-apple-system,&quot;SF Pro Display&quot;,&quot;SF Pro Text&quot;,Helvetica,sans-serif;" transform="matrix(1 0 0 1 776 2025)">scales and weights.</text>
  <g id="" transform="matrix(1 0 0 1 1289 1933)">
   <path d="M2.8418 1.86523L4.54102 3.57422C5.40039 4.44336 6.38672 4.38477 7.31445 3.35938L17.4902-7.85156C17.7539-7.76367 18.0273-7.7832 18.3398-7.8418L19.4043-8.03711L20.0684-7.36328L20.0293-6.80664C19.9902-6.30859 20.1172-5.92773 20.6055-5.44922L21.3672-4.70703C21.8457-4.22852 22.4609-4.19922 22.9297-4.66797L25.8398-7.58789C26.3086-8.05664 26.2891-8.65234 25.8105-9.13086L25.0391-9.89258C24.5605-10.3711 24.1895-10.5273 23.7109-10.4883L23.1348-10.4395L22.4902-11.0742L22.7344-12.1973C22.8613-12.7637 22.7051-13.2031 22.1191-13.7891L19.9219-15.9766C16.582-19.2969 12.1484-19.2188 9.25781-16.3281C8.83789-15.918 8.80859-15.3418 9.04297-14.9512C9.27734-14.5898 9.73633-14.3555 10.3809-14.5215C11.8457-14.8633 13.3691-14.9219 14.7949-13.9844L14.209-12.5293C14.0137-12.0508 13.9844-11.6504 14.1113-11.2891L3.04688-0.898438C2.06055 0.0195312 1.98242 0.996094 2.8418 1.86523ZM10.752-15.957C13.1836-17.7344 16.4746-17.4316 18.7012-15.2051L21.1328-12.793C21.3672-12.5586 21.4062-12.373 21.3379-12.0312L21.0156-10.5469L22.5195-9.0625L23.5059-9.12109C23.7598-9.13086 23.8379-9.11133 24.0332-8.91602L24.6094-8.33984L22.168-5.89844L21.5918-6.47461C21.3965-6.66992 21.3672-6.74805 21.377-7.01172L21.4453-7.98828L19.9512-9.47266L18.4277-9.21875C18.1055-9.15039 17.959-9.17969 17.7148-9.41406L15.7129-11.416C15.459-11.6504 15.4297-11.8164 15.5859-12.1875L16.4648-14.2773C14.9023-15.7324 12.8711-16.3574 10.8398-15.7617C10.6836-15.7227 10.625-15.8496 10.752-15.957ZM5.27344 2.30469L4.10156 1.14258C3.63281 0.683594 3.74023 0.341797 4.14062-0.0195312L14.9512-10.1953L16.416-8.71094L6.42578 2.27539C6.07422 2.67578 5.74219 2.77344 5.27344 2.30469Z"/>
  </g>
  <text style="stroke:none;fill:black;font-family:-apple-system,&quot;SF Pro Display&quot;,&quot;SF Pro Text&quot;,Helvetica,sans-serif;font-weight:bold;" transform="matrix(1 0 0 1 1289 1953)">Exporting</text>
  <text style="stroke:none;fill:black;font-family:-apple-system,&quot;SF Pro Display&quot;,&quot;SF Pro Text&quot;,Helvetica,sans-serif;" transform="matrix(1 0 0 1 1289 1971)">Symbols should be outlined when exporting to ensure the</text>
  <text style="stroke:none;fill:black;font-family:-apple-system,&quot;SF Pro Display&quot;,&quot;SF Pro Text&quot;,Helvetica,sans-serif;" transform="matrix(1 0 0 1 1289 1989)">design is preserved when submitting to Xcode.</text>
  <text id="template-version" style="stroke:none;fill:black;font-family:-apple-system,&quot;SF Pro Display&quot;,&quot;SF Pro Text&quot;,Helvetica,sans-serif;text-anchor:end;" transform="matrix(1 0 0 1 3036 1933)">Template v.2.0</text>
  <text style="stroke:none;fill:black;font-family:-apple-system,&quot;SF Pro Display&quot;,&quot;SF Pro Text&quot;,Helvetica,sans-serif;text-anchor:end;" transform="matrix(1 0 0 1 3036 1951)">Requires Xcode 12 or greater</text>
  <text style="stroke:none;fill:black;font-family:-apple-system,&quot;SF Pro Display&quot;,&quot;SF Pro Text&quot;,Helvetica,sans-serif;text-anchor:end;" transform="matrix(1 0 0 1 3036 1969)">Generated from text.alignleft</text>
  <text style="stroke:none;fill:black;font-family:-apple-system,&quot;SF Pro Display&quot;,&quot;SF Pro Text&quot;,Helvetica,sans-serif;text-anchor:end;" transform="matrix(1 0 0 1 3036 1987)">Typeset at 100 points</text>
  <text style="stroke:none;fill:black;font-family:-apple-system,&quot;SF Pro Display&quot;,&quot;SF Pro Text&quot;,Helvetica,sans-serif;" transform="matrix(1 0 0 1 263 726)">Small</text>
  <text style="stroke:none;fill:black;font-family:-apple-system,&quot;SF Pro Display&quot;,&quot;SF Pro Text&quot;,Helvetica,sans-serif;" transform="matrix(1 0 0 1 263 1156)">Medium</text>
  <text style="stroke:none;fill:black;font-family:-apple-system,&quot;SF Pro Display&quot;,&quot;SF Pro Text&quot;,Helvetica,sans-serif;" transform="matrix(1 0 0 1 263 1586)">Large</text>
 </g>
 <g id="Guides">
  <g id="H-reference" style="fill:#27AAE1;stroke:none;" transform="matrix(1 0 0 1 339 696)">
   <path d="M0.976562 0L3.66211 0L12.9883-24.4629L45.752-24.4629L55.127 0L57.7637 0L30.6152-70.459L28.125-70.459ZM29.3457-67.1387L29.4434-67.1387L44.873-26.709L13.8672-26.709Z"/>
  </g>
  <line id="Baseline-S" style="fill:none;stroke:#27AAE1;opacity:1;stroke-width:0.5;" x1="263" x2="3036" y1="696" y2="696"/>
  <line id="Capline-S" style="fill:none;stroke:#27AAE1;opacity:1;stroke-width:0.5;" x1="263" x2="3036" y1="625.541" y2="625.541"/>
  <g id="H-reference" style="fill:#27AAE1;stroke:none;" transform="matrix(1 0 0 1 339 1126)">
   <path d="M0.976562 0L3.66211 0L12.9883-24.4629L45.752-24.4629L55.127 0L57.7637 0L30.6152-70.459L28.125-70.459ZM29.3457-67.1387L29.4434-67.1387L44.873-26.709L13.8672-26.709Z"/>
  </g>
  <line id="Baseline-M" style="fill:none;stroke:#27AAE1;opacity:1;stroke-width:0.5;" x1="263" x2="3036" y1="1126" y2="1126"/>
  <line id="Capline-M" style="fill:none;stroke:#27AAE1;opacity:1;stroke-width:0.5;" x1="263" x2="3036" y1="1055.54" y2="1055.54"/>
  <g id="H-reference" style="fill:#27AAE1;stroke:none;" transform="matrix(1 0 0 1 339 1556)">
   <path d="M0.976562 0L3.66211 0L12.9883-24.4629L45.752-24.4629L55.127 0L57.7637 0L30.6152-70.459L28.125-70.459ZM29.3457-67.1387L29.4434-67.1387L44.873-26.709L13.8672-26.709Z"/>
  </g>
  <line id="Baseline-L" style="fill:none;stroke:#27AAE1;opacity:1;stroke-width:0.5;" x1="263" x2="3036" y1="1556" y2="1556"/>
  <line id="Capline-L" style="fill:none;stroke:#27AAE1;opacity:1;stroke-width:0.5;" x1="263" x2="3036" y1="1485.54" y2="1485.54"/>
  <line id="left-margin" style="fill:none;stroke:#00AEEF;stroke-width:0.5;opacity:1.0;" x1="1388.2" x2="1388.2" y1="1030.79" y2="1150.12"/>
  <line id="right-margin" style="fill:none;stroke:#00AEEF;stroke-width:0.5;opacity:1.0;" x1="1511.49" x2="1511.49" y1="1030.79" y2="1150.12"/>
 </g>
 <g id="Symbols">
  <g id="Black-L" transform="matrix(1 0 0 1 2847.17 1556)">
   <path d="M24.4629-76.6113L147.998-76.6113C152.686-76.6113 156.396-80.3223 156.396-84.9609C156.396-89.6484 152.686-93.3594 147.998-93.3594L24.4629-93.3594C19.7754-93.3594 16.0645-89.6484 16.0645-84.9609C16.0645-80.3223 19.7754-76.6113 24.4629-76.6113ZM24.4629-43.6035L93.9453-43.6035C98.584-43.6035 102.344-47.3633 102.344-52.002C102.344-56.6406 98.584-60.3516 93.9453-60.3516L24.4629-60.3516C19.7754-60.3516 16.0645-56.6406 16.0645-52.002C16.0645-47.3633 19.7754-43.6035 24.4629-43.6035ZM24.4629-10.6445L147.998-10.6445C152.686-10.6445 156.396-14.3555 156.396-19.043C156.396-23.6816 152.686-27.3926 147.998-27.3926L24.4629-27.3926C19.7754-27.3926 16.0645-23.6816 16.0645-19.043C16.0645-14.3555 19.7754-10.6445 24.4629-10.6445ZM24.4629 22.3145L93.9453 22.3145C98.584 22.3145 102.344 18.6035 102.344 13.9648C102.344 9.27734 98.584 5.56641 93.9453 5.56641L24.4629 5.56641C19.7754 5.56641 16.0645 9.27734 16.0645 13.9648C16.0645 18.6035 19.7754 22.3145 24.4629 22.3145Z"/>
  </g>
  <g id="Heavy-L" transform="matrix(1 0 0 1 2552.19 1556)">
   <path d="M23.4375-77.5879L145.557-77.5879C149.658-77.5879 152.93-80.8594 152.93-84.9609C152.93-89.0625 149.658-92.334 145.557-92.334L23.4375-92.334C19.3359-92.334 16.0645-89.0625 16.0645-84.9609C16.0645-80.8594 19.3359-77.5879 23.4375-77.5879ZM23.4375-44.6289L93.5547-44.6289C97.6562-44.6289 100.928-47.9004 100.928-51.9531C100.928-56.0547 97.6562-59.3262 93.5547-59.3262L23.4375-59.3262C19.3359-59.3262 16.0645-56.0547 16.0645-51.9531C16.0645-47.9004 19.3359-44.6289 23.4375-44.6289ZM23.4375-11.6211L145.557-11.6211C149.658-11.6211 152.93-14.8926 152.93-18.9941C152.93-23.0957 149.658-26.3672 145.557-26.3672L23.4375-26.3672C19.3359-26.3672 16.0645-23.0957 16.0645-18.9941C16.0645-14.8926 19.3359-11.6211 23.4375-11.6211ZM23.4375 21.3379L93.5547 21.3379C97.6562 21.3379 100.928 18.1152 100.928 14.0137C100.928 9.91211 97.6562 6.64062 93.5547 6.64062L23.4375 6.64062C19.3359 6.64062 16.0645 9.91211 16.0645 14.0137C16.0645 18.1152 19.3359 21.3379 23.4375 21.3379Z"/>
  </g>
  <g id="Bold-L" transform="matrix(1 0 0 1 2257.43 1556)">
   <path d="M22.3145-78.7109L142.773-78.7109C146.24-78.7109 149.023-81.4941 149.023-84.9609C149.023-88.4277 146.24-91.1621 142.773-91.1621L22.3145-91.1621C18.7988-91.1621 16.0645-88.4277 16.0645-84.9609C16.0645-81.4941 18.7988-78.7109 22.3145-78.7109ZM22.3145-45.7031L93.1641-45.7031C96.6309-45.7031 99.4141-48.4863 99.4141-51.9531C99.4141-55.4199 96.6309-58.1543 93.1641-58.1543L22.3145-58.1543C18.7988-58.1543 16.0645-55.4199 16.0645-51.9531C16.0645-48.4863 18.7988-45.7031 22.3145-45.7031ZM22.3145-12.7441L142.773-12.7441C146.24-12.7441 149.023-15.4785 149.023-18.9453C149.023-22.4121 146.24-25.1953 142.773-25.1953L22.3145-25.1953C18.7988-25.1953 16.0645-22.4121 16.0645-18.9453C16.0645-15.4785 18.7988-12.7441 22.3145-12.7441ZM22.3145 20.2637L93.1641 20.2637C96.6309 20.2637 99.4141 17.5293 99.4141 14.0625C99.4141 10.5957 96.6309 7.8125 93.1641 7.8125L22.3145 7.8125C18.7988 7.8125 16.0645 10.5957 16.0645 14.0625C16.0645 17.5293 18.7988 20.2637 22.3145 20.2637Z"/>
  </g>
  <g id="Semibold-L" transform="matrix(1 0 0 1 1962.07 1556)">
   <path d="M21.5332-79.4922L140.869-79.4922C143.896-79.4922 146.338-81.8848 146.338-84.9609C146.338-87.9883 143.896-90.3809 140.869-90.3809L21.5332-90.3809C18.457-90.3809 16.0645-87.9883 16.0645-84.9609C16.0645-81.8848 18.457-79.4922 21.5332-79.4922ZM21.5332-46.4844L92.8711-46.4844C95.8984-46.4844 98.3398-48.877 98.3398-51.9531C98.3398-54.9805 95.8984-57.373 92.8711-57.373L21.5332-57.373C18.457-57.373 16.0645-54.9805 16.0645-51.9531C16.0645-48.877 18.457-46.4844 21.5332-46.4844ZM21.5332-13.4766L140.869-13.4766C143.896-13.4766 146.338-15.8691 146.338-18.8965C146.338-21.9727 143.896-24.3652 140.869-24.3652L21.5332-24.3652C18.457-24.3652 16.0645-21.9727 16.0645-18.8965C16.0645-15.8691 18.457-13.4766 21.5332-13.4766ZM21.5332 19.5312L92.8711 19.5312C95.8984 19.5312 98.3398 17.1387 98.3398 14.1113C98.3398 11.0352 95.8984 8.64258 92.8711 8.64258L21.5332 8.64258C18.457 8.64258 16.0645 11.0352 16.0645 14.1113C16.0645 17.1387 18.457 19.5312 21.5332 19.5312Z"/>
  </g>
  <g id="Medium-L" transform="matrix(1 0 0 1 1666.38 1556)">
   <path d="M20.8984-80.0781L139.404-80.0781C142.139-80.0781 144.287-82.2266 144.287-84.9609C144.287-87.6465 142.139-89.7949 139.404-89.7949L20.8984-89.7949C18.2129-89.7949 16.0645-87.6465 16.0645-84.9609C16.0645-82.2266 18.2129-80.0781 20.8984-80.0781ZM20.8984-47.0703L92.627-47.0703C95.3613-47.0703 97.5586-49.2188 97.5586-51.9043C97.5586-54.6387 95.3613-56.7871 92.627-56.7871L20.8984-56.7871C18.2129-56.7871 16.0645-54.6387 16.0645-51.9043C16.0645-49.2188 18.2129-47.0703 20.8984-47.0703ZM20.8984-14.0625L139.404-14.0625C142.139-14.0625 144.287-16.1621 144.287-18.8965C144.287-21.6309 142.139-23.7305 139.404-23.7305L20.8984-23.7305C18.2129-23.7305 16.0645-21.6309 16.0645-18.8965C16.0645-16.1621 18.2129-14.0625 20.8984-14.0625ZM20.8984 18.9941L92.627 18.9941C95.3613 18.9941 97.5586 16.8457 97.5586 14.1113C97.5586 11.4258 95.3613 9.27734 92.627 9.27734L20.8984 9.27734C18.2129 9.27734 16.0645 11.4258 16.0645 14.1113C16.0645 16.8457 18.2129 18.9941 20.8984 18.9941Z"/>
  </g>
  <g id="Regular-L" transform="matrix(1 0 0 1 1370.99 1556)">
   <path d="M20.166-80.8594L137.5-80.8594C139.795-80.8594 141.65-82.6172 141.65-84.9609C141.65-87.2559 139.795-89.0137 137.5-89.0137L20.166-89.0137C17.8223-89.0137 16.0645-87.2559 16.0645-84.9609C16.0645-82.6172 17.8223-80.8594 20.166-80.8594ZM20.166-47.8027L92.334-47.8027C94.6777-47.8027 96.4844-49.6094 96.4844-51.9043C96.4844-54.1992 94.6777-56.0059 92.334-56.0059L20.166-56.0059C17.8223-56.0059 16.0645-54.1992 16.0645-51.9043C16.0645-49.6094 17.8223-47.8027 20.166-47.8027ZM20.166-14.7949L137.5-14.7949C139.795-14.7949 141.65-16.5527 141.65-18.8477C141.65-21.1914 139.795-22.9492 137.5-22.9492L20.166-22.9492C17.8223-22.9492 16.0645-21.1914 16.0645-18.8477C16.0645-16.5527 17.8223-14.7949 20.166-14.7949ZM20.166 18.2617L92.334 18.2617C94.6777 18.2617 96.4844 16.4551 96.4844 14.1602C96.4844 11.8652 94.6777 10.1074 92.334 10.1074L20.166 10.1074C17.8223 10.1074 16.0645 11.8652 16.0645 14.1602C16.0645 16.4551 17.8223 18.2617 20.166 18.2617Z"/>
  </g>
  <g id="Light-L" transform="matrix(1 0 0 1 1075.2 1556)">
   <path d="M19.2383-81.7871L136.621-81.7871C138.379-81.7871 139.795-83.1055 139.795-84.9121C139.795-86.7188 138.379-88.0859 136.621-88.0859L19.2383-88.0859C17.4316-88.0859 16.0645-86.7188 16.0645-84.9121C16.0645-83.1055 17.4316-81.7871 19.2383-81.7871ZM19.2383-48.6816L93.3105-48.6816C95.1172-48.6816 96.4844-50.0488 96.4844-51.8555C96.4844-53.6621 95.1172-54.9805 93.3105-54.9805L19.2383-54.9805C17.4316-54.9805 16.0645-53.6621 16.0645-51.8555C16.0645-50.0488 17.4316-48.6816 19.2383-48.6816ZM19.2383-15.625L136.621-15.625C138.379-15.625 139.795-16.9922 139.795-18.7988C139.795-20.5566 138.379-21.9238 136.621-21.9238L19.2383-21.9238C17.4316-21.9238 16.0645-20.5566 16.0645-18.7988C16.0645-16.9922 17.4316-15.625 19.2383-15.625ZM19.2383 17.4316L93.3105 17.4316C95.1172 17.4316 96.4844 16.1133 96.4844 14.3066C96.4844 12.5 95.1172 11.1328 93.3105 11.1328L19.2383 11.1328C17.4316 11.1328 16.0645 12.5 16.0645 14.3066C16.0645 16.1133 17.4316 17.4316 19.2383 17.4316Z"/>
  </g>
  <g id="Thin-L" transform="matrix(1 0 0 1 779.713 1556)">
   <path d="M18.0176-82.959L135.4-82.959C136.523-82.959 137.354-83.7402 137.354-84.9121C137.354-86.0352 136.523-86.8164 135.4-86.8164L18.0176-86.8164C16.8457-86.8164 16.0645-86.0352 16.0645-84.9121C16.0645-83.7402 16.8457-82.959 18.0176-82.959ZM18.0176-49.8535L94.5312-49.8535C95.7031-49.8535 96.4844-50.6348 96.4844-51.7578C96.4844-52.9297 95.7031-53.7109 94.5312-53.7109L18.0176-53.7109C16.8457-53.7109 16.0645-52.9297 16.0645-51.7578C16.0645-50.6348 16.8457-49.8535 18.0176-49.8535ZM18.0176-16.6992L135.4-16.6992C136.523-16.6992 137.354-17.5293 137.354-18.6523C137.354-19.7754 136.523-20.6055 135.4-20.6055L18.0176-20.6055C16.8457-20.6055 16.0645-19.7754 16.0645-18.6523C16.0645-17.5293 16.8457-16.6992 18.0176-16.6992ZM18.0176 16.4062L94.5312 16.4062C95.7031 16.4062 96.4844 15.625 96.4844 14.4531C96.4844 13.3301 95.7031 12.5488 94.5312 12.5488L18.0176 12.5488C16.8457 12.5488 16.0645 13.3301 16.0645 14.4531C16.0645 15.625 16.8457 16.4062 18.0176 16.4062Z"/>
  </g>
  <g id="Ultralight-L" transform="matrix(1 0 0 1 483.637 1556)">
   <path d="M17.3828-83.5938L134.766-83.5938C135.596-83.5938 136.084-84.082 136.084-84.8633C136.084-85.6934 135.596-86.1816 134.766-86.1816L17.3828-86.1816C16.5527-86.1816 16.0645-85.6934 16.0645-84.8633C16.0645-84.082 16.5527-83.5938 17.3828-83.5938ZM17.3828-50.4395L95.166-50.4395C95.9961-50.4395 96.4844-50.9277 96.4844-51.7578C96.4844-52.5391 95.9961-53.0273 95.166-53.0273L17.3828-53.0273C16.5527-53.0273 16.0645-52.5391 16.0645-51.7578C16.0645-50.9277 16.5527-50.4395 17.3828-50.4395ZM17.3828-17.2852L134.766-17.2852C135.596-17.2852 136.084-17.7734 136.084-18.6035C136.084-19.3848 135.596-19.9219 134.766-19.9219L17.3828-19.9219C16.5527-19.9219 16.0645-19.3848 16.0645-18.6035C16.0645-17.7734 16.5527-17.2852 17.3828-17.2852ZM17.3828 15.8691L95.166 15.8691C95.9961 15.8691 96.4844 15.332 96.4844 14.5508C96.4844 13.7695 95.9961 13.2324 95.166 13.2324L17.3828 13.2324C16.5527 13.2324 16.0645 13.7695 16.0645 14.5508C16.0645 15.332 16.5527 15.8691 17.3828 15.8691Z"/>
  </g>
  <g id="Black-M" transform="matrix(1 0 0 1 2864.7 1126)">
   <path d="M19.8242-66.4062L117.578-66.4062C121.68-66.4062 124.951-69.6777 124.951-73.7793C124.951-77.8809 121.68-81.1523 117.578-81.1523L19.8242-81.1523C15.7227-81.1523 12.4512-77.8809 12.4512-73.7793C12.4512-69.6777 15.7227-66.4062 19.8242-66.4062ZM19.8242-40.8691L73.7793-40.8691C77.8809-40.8691 81.1523-44.1406 81.1523-48.2422C81.1523-52.2949 77.8809-55.5664 73.7793-55.5664L19.8242-55.5664C15.7227-55.5664 12.4512-52.2949 12.4512-48.2422C12.4512-44.1406 15.7227-40.8691 19.8242-40.8691ZM19.8242-15.2832L117.578-15.2832C121.68-15.2832 124.951-18.6035 124.951-22.6562C124.951-26.7578 121.68-30.0293 117.578-30.0293L19.8242-30.0293C15.7227-30.0293 12.4512-26.7578 12.4512-22.6562C12.4512-18.6035 15.7227-15.2832 19.8242-15.2832ZM19.8242 10.2539L73.7793 10.2539C77.8809 10.2539 81.1523 6.98242 81.1523 2.88086C81.1523-1.2207 77.8809-4.49219 73.7793-4.49219L19.8242-4.49219C15.7227-4.49219 12.4512-1.2207 12.4512 2.88086C12.4512 6.98242 15.7227 10.2539 19.8242 10.2539Z"/>
  </g>
  <g id="Heavy-M" transform="matrix(1 0 0 1 2569.65 1126)">
   <path d="M18.9453-67.2852L115.088-67.2852C118.701-67.2852 121.631-70.166 121.631-73.7793C121.631-77.3926 118.701-80.2734 115.088-80.2734L18.9453-80.2734C15.332-80.2734 12.4512-77.3926 12.4512-73.7793C12.4512-70.166 15.332-67.2852 18.9453-67.2852ZM18.9453-41.6992L73.1445-41.6992C76.7578-41.6992 79.6387-44.5801 79.6387-48.1934C79.6387-51.8066 76.7578-54.6875 73.1445-54.6875L18.9453-54.6875C15.332-54.6875 12.4512-51.8066 12.4512-48.1934C12.4512-44.5801 15.332-41.6992 18.9453-41.6992ZM18.9453-16.1621L115.088-16.1621C118.701-16.1621 121.631-19.043 121.631-22.6562C121.631-26.2695 118.701-29.1504 115.088-29.1504L18.9453-29.1504C15.332-29.1504 12.4512-26.2695 12.4512-22.6562C12.4512-19.043 15.332-16.1621 18.9453-16.1621ZM18.9453 9.42383L73.1445 9.42383C76.7578 9.42383 79.6387 6.49414 79.6387 2.88086C79.6387-0.732422 76.7578-3.61328 73.1445-3.61328L18.9453-3.61328C15.332-3.61328 12.4512-0.732422 12.4512 2.88086C12.4512 6.49414 15.332 9.42383 18.9453 9.42383Z"/>
  </g>
  <g id="Bold-M" transform="matrix(1 0 0 1 2274.82 1126)">
   <path d="M17.9688-68.2617L112.354-68.2617C115.43-68.2617 117.871-70.7031 117.871-73.7793C117.871-76.8555 115.43-79.2969 112.354-79.2969L17.9688-79.2969C14.8926-79.2969 12.4512-76.8555 12.4512-73.7793C12.4512-70.7031 14.8926-68.2617 17.9688-68.2617ZM17.9688-42.6758L72.4121-42.6758C75.4883-42.6758 77.9785-45.1172 77.9785-48.1934C77.9785-51.2695 75.4883-53.7109 72.4121-53.7109L17.9688-53.7109C14.8926-53.7109 12.4512-51.2695 12.4512-48.1934C12.4512-45.1172 14.8926-42.6758 17.9688-42.6758ZM17.9688-17.0898L112.354-17.0898C115.43-17.0898 117.871-19.5801 117.871-22.6562C117.871-25.7324 115.43-28.1738 112.354-28.1738L17.9688-28.1738C14.8926-28.1738 12.4512-25.7324 12.4512-22.6562C12.4512-19.5801 14.8926-17.0898 17.9688-17.0898ZM17.9688 8.44727L72.4121 8.44727C75.4883 8.44727 77.9785 6.00586 77.9785 2.92969C77.9785-0.146484 75.4883-2.58789 72.4121-2.58789L17.9688-2.58789C14.8926-2.58789 12.4512-0.146484 12.4512 2.92969C12.4512 6.00586 14.8926 8.44727 17.9688 8.44727Z"/>
  </g>
  <g id="Semibold-M" transform="matrix(1 0 0 1 1979.38 1126)">
   <path d="M17.2852-68.8965L110.4-68.8965C113.135-68.8965 115.332-71.0449 115.332-73.7793C115.332-76.4648 113.135-78.6133 110.4-78.6133L17.2852-78.6133C14.5996-78.6133 12.4512-76.4648 12.4512-73.7793C12.4512-71.0449 14.5996-68.8965 17.2852-68.8965ZM17.2852-43.3594L71.9238-43.3594C74.6094-43.3594 76.8066-45.5078 76.8066-48.1934C76.8066-50.9277 74.6094-53.0762 71.9238-53.0762L17.2852-53.0762C14.5996-53.0762 12.4512-50.9277 12.4512-48.1934C12.4512-45.5078 14.5996-43.3594 17.2852-43.3594ZM17.2852-17.7734L110.4-17.7734C113.135-17.7734 115.332-19.9219 115.332-22.6074C115.332-25.3418 113.135-27.4902 110.4-27.4902L17.2852-27.4902C14.5996-27.4902 12.4512-25.3418 12.4512-22.6074C12.4512-19.9219 14.5996-17.7734 17.2852-17.7734ZM17.2852 7.8125L71.9238 7.8125C74.6094 7.8125 76.8066 5.66406 76.8066 2.92969C76.8066 0.244141 74.6094-1.9043 71.9238-1.9043L17.2852-1.9043C14.5996-1.9043 12.4512 0.244141 12.4512 2.92969C12.4512 5.66406 14.5996 7.8125 17.2852 7.8125Z"/>
  </g>
  <g id="Medium-M" transform="matrix(1 0 0 1 1683.64 1126)">
   <path d="M16.7969-69.4336L108.984-69.4336C111.426-69.4336 113.379-71.3379 113.379-73.7793C113.379-76.1719 111.426-78.125 108.984-78.125L16.7969-78.125C14.3555-78.125 12.4512-76.1719 12.4512-73.7793C12.4512-71.3379 14.3555-69.4336 16.7969-69.4336ZM16.7969-43.8477L71.5332-43.8477C73.9746-43.8477 75.9277-45.752 75.9277-48.1934C75.9277-50.6348 73.9746-52.5391 71.5332-52.5391L16.7969-52.5391C14.3555-52.5391 12.4512-50.6348 12.4512-48.1934C12.4512-45.752 14.3555-43.8477 16.7969-43.8477ZM16.7969-18.2617L108.984-18.2617C111.426-18.2617 113.379-20.166 113.379-22.6074C113.379-25.0488 111.426-26.9531 108.984-26.9531L16.7969-26.9531C14.3555-26.9531 12.4512-25.0488 12.4512-22.6074C12.4512-20.166 14.3555-18.2617 16.7969-18.2617ZM16.7969 7.32422L71.5332 7.32422C73.9746 7.32422 75.9277 5.37109 75.9277 2.97852C75.9277 0.537109 73.9746-1.36719 71.5332-1.36719L16.7969-1.36719C14.3555-1.36719 12.4512 0.537109 12.4512 2.97852C12.4512 5.37109 14.3555 7.32422 16.7969 7.32422Z"/>
  </g>
  <g id="Regular-M" transform="matrix(1 0 0 1 1388.2 1126)">
   <path d="M16.1133-70.0684L107.08-70.0684C109.131-70.0684 110.84-71.6797 110.84-73.7793C110.84-75.8301 109.131-77.4414 107.08-77.4414L16.1133-77.4414C14.0625-77.4414 12.4512-75.8301 12.4512-73.7793C12.4512-71.6797 14.0625-70.0684 16.1133-70.0684ZM16.1133-44.4824L71.0449-44.4824C73.0957-44.4824 74.7559-46.0938 74.7559-48.1934C74.7559-50.2441 73.0957-51.8555 71.0449-51.8555L16.1133-51.8555C14.0625-51.8555 12.4512-50.2441 12.4512-48.1934C12.4512-46.0938 14.0625-44.4824 16.1133-44.4824ZM16.1133-18.8965L107.08-18.8965C109.131-18.8965 110.84-20.5566 110.84-22.6074C110.84-24.6582 109.131-26.2695 107.08-26.2695L16.1133-26.2695C14.0625-26.2695 12.4512-24.6582 12.4512-22.6074C12.4512-20.5566 14.0625-18.8965 16.1133-18.8965ZM16.1133 6.64062L71.0449 6.64062C73.0957 6.64062 74.7559 5.0293 74.7559 2.97852C74.7559 0.927734 73.0957-0.732422 71.0449-0.732422L16.1133-0.732422C14.0625-0.732422 12.4512 0.927734 12.4512 2.97852C12.4512 5.0293 14.0625 6.64062 16.1133 6.64062Z"/>
  </g>
  <g id="Light-M" transform="matrix(1 0 0 1 1092.32 1126)">
   <path d="M15.332-70.8984L106.25-70.8984C107.91-70.8984 109.18-72.1191 109.18-73.7305C109.18-75.3418 107.91-76.6113 106.25-76.6113L15.332-76.6113C13.6719-76.6113 12.4512-75.3418 12.4512-73.7305C12.4512-72.1191 13.6719-70.8984 15.332-70.8984ZM15.332-45.2637L71.875-45.2637C73.4863-45.2637 74.7559-46.5332 74.7559-48.1445C74.7559-49.7559 73.4863-50.9766 71.875-50.9766L15.332-50.9766C13.6719-50.9766 12.4512-49.7559 12.4512-48.1445C12.4512-46.5332 13.6719-45.2637 15.332-45.2637ZM15.332-19.6777L106.25-19.6777C107.91-19.6777 109.18-20.8984 109.18-22.5098C109.18-24.1211 107.91-25.3906 106.25-25.3906L15.332-25.3906C13.6719-25.3906 12.4512-24.1211 12.4512-22.5098C12.4512-20.8984 13.6719-19.6777 15.332-19.6777ZM15.332 5.95703L71.875 5.95703C73.4863 5.95703 74.7559 4.6875 74.7559 3.07617C74.7559 1.46484 73.4863 0.244141 71.875 0.244141L15.332 0.244141C13.6719 0.244141 12.4512 1.46484 12.4512 3.07617C12.4512 4.6875 13.6719 5.95703 15.332 5.95703Z"/>
  </g>
  <g id="Thin-M" transform="matrix(1 0 0 1 796.705 1126)">
   <path d="M14.209-71.9727L105.176-71.9727C106.201-71.9727 106.982-72.7051 106.982-73.7305C106.982-74.7559 106.201-75.4883 105.176-75.4883L14.209-75.4883C13.1836-75.4883 12.4512-74.7559 12.4512-73.7305C12.4512-72.7051 13.1836-71.9727 14.209-71.9727ZM14.209-46.2891L72.998-46.2891C74.0234-46.2891 74.7559-47.0215 74.7559-48.0469C74.7559-49.0723 74.0234-49.8535 72.998-49.8535L14.209-49.8535C13.1836-49.8535 12.4512-49.0723 12.4512-48.0469C12.4512-47.0215 13.1836-46.2891 14.209-46.2891ZM14.209-20.6543L105.176-20.6543C106.201-20.6543 106.982-21.3867 106.982-22.4121C106.982-23.4375 106.201-24.1699 105.176-24.1699L14.209-24.1699C13.1836-24.1699 12.4512-23.4375 12.4512-22.4121C12.4512-21.3867 13.1836-20.6543 14.209-20.6543ZM14.209 5.0293L72.998 5.0293C74.0234 5.0293 74.7559 4.24805 74.7559 3.22266C74.7559 2.19727 74.0234 1.46484 72.998 1.46484L14.209 1.46484C13.1836 1.46484 12.4512 2.19727 12.4512 3.22266C12.4512 4.24805 13.1836 5.0293 14.209 5.0293Z"/>
  </g>
  <g id="Ultralight-M" transform="matrix(1 0 0 1 500.556 1126)">
   <path d="M13.6719-72.5098L104.639-72.5098C105.371-72.5098 105.859-72.998 105.859-73.7305C105.859-74.4141 105.371-74.9023 104.639-74.9023L13.6719-74.9023C12.9395-74.9023 12.4512-74.4141 12.4512-73.7305C12.4512-72.998 12.9395-72.5098 13.6719-72.5098ZM13.6719-46.8262L73.584-46.8262C74.3164-46.8262 74.7559-47.3145 74.7559-48.0469C74.7559-48.7793 74.3164-49.2188 73.584-49.2188L13.6719-49.2188C12.9395-49.2188 12.4512-48.7793 12.4512-48.0469C12.4512-47.3145 12.9395-46.8262 13.6719-46.8262ZM13.6719-21.1426L104.639-21.1426C105.371-21.1426 105.859-21.6309 105.859-22.3633C105.859-23.0957 105.371-23.5352 104.639-23.5352L13.6719-23.5352C12.9395-23.5352 12.4512-23.0957 12.4512-22.3633C12.4512-21.6309 12.9395-21.1426 13.6719-21.1426ZM13.6719 4.54102L73.584 4.54102C74.3164 4.54102 74.7559 4.05273 74.7559 3.32031C74.7559 2.58789 74.3164 2.09961 73.584 2.09961L13.6719 2.09961C12.9395 2.09961 12.4512 2.58789 12.4512 3.32031C12.4512 4.05273 12.9395 4.54102 13.6719 4.54102Z"/>
  </g>
  <g id="Black-S" transform="matrix(1 0 0 1 2879.69 696)">
   <path d="M15.4785-59.7168L91.9434-59.7168C95.1172-59.7168 97.6562-62.2559 97.6562-65.4297C97.6562-68.6035 95.1172-71.1426 91.9434-71.1426L15.4785-71.1426C12.3047-71.1426 9.76562-68.6035 9.76562-65.4297C9.76562-62.2559 12.3047-59.7168 15.4785-59.7168ZM15.4785-39.6973L57.7637-39.6973C60.9375-39.6973 63.4766-42.2363 63.4766-45.4102C63.4766-48.584 60.9375-51.123 57.7637-51.123L15.4785-51.123C12.3047-51.123 9.76562-48.584 9.76562-45.4102C9.76562-42.2363 12.3047-39.6973 15.4785-39.6973ZM15.4785-19.6777L91.9434-19.6777C95.1172-19.6777 97.6562-22.2168 97.6562-25.3906C97.6562-28.5645 95.1172-31.1035 91.9434-31.1035L15.4785-31.1035C12.3047-31.1035 9.76562-28.5645 9.76562-25.3906C9.76562-22.2168 12.3047-19.6777 15.4785-19.6777ZM15.4785 0.341797L57.7637 0.341797C60.9375 0.341797 63.4766-2.19727 63.4766-5.37109C63.4766-8.54492 60.9375-11.084 57.7637-11.084L15.4785-11.084C12.3047-11.084 9.76562-8.54492 9.76562-5.37109C9.76562-2.19727 12.3047 0.341797 15.4785 0.341797Z"/>
  </g>
  <g id="Heavy-S" transform="matrix(1 0 0 1 2584.15 696)">
   <path d="M14.8926-60.3027L90.1367-60.3027C93.0176-60.3027 95.3125-62.5488 95.3125-65.4297C95.3125-68.3105 93.0176-70.5566 90.1367-70.5566L14.8926-70.5566C12.0605-70.5566 9.76562-68.3105 9.76562-65.4297C9.76562-62.5488 12.0605-60.3027 14.8926-60.3027ZM14.8926-40.2832L57.1777-40.2832C60.0098-40.2832 62.3047-42.5293 62.3047-45.4102C62.3047-48.2422 60.0098-50.5371 57.1777-50.5371L14.8926-50.5371C12.0605-50.5371 9.76562-48.2422 9.76562-45.4102C9.76562-42.5293 12.0605-40.2832 14.8926-40.2832ZM14.8926-20.2637L90.1367-20.2637C93.0176-20.2637 95.3125-22.5098 95.3125-25.3906C95.3125-28.2227 93.0176-30.5176 90.1367-30.5176L14.8926-30.5176C12.0605-30.5176 9.76562-28.2227 9.76562-25.3906C9.76562-22.5098 12.0605-20.2637 14.8926-20.2637ZM14.8926-0.244141L57.1777-0.244141C60.0098-0.244141 62.3047-2.49023 62.3047-5.37109C62.3047-8.20312 60.0098-10.498 57.1777-10.498L14.8926-10.498C12.0605-10.498 9.76562-8.20312 9.76562-5.37109C9.76562-2.49023 12.0605-0.244141 14.8926-0.244141Z"/>
  </g>
  <g id="Bold-S" transform="matrix(1 0 0 1 2288.78 696)">
   <path d="M14.2578-60.9375L88.1348-60.9375C90.625-60.9375 92.627-62.9395 92.627-65.4297C92.627-67.9199 90.625-69.9219 88.1348-69.9219L14.2578-69.9219C11.7676-69.9219 9.76562-67.9199 9.76562-65.4297C9.76562-62.9395 11.7676-60.9375 14.2578-60.9375ZM14.2578-40.918L56.4941-40.918C59.0332-40.918 61.0352-42.9199 61.0352-45.4102C61.0352-47.9004 59.0332-49.9023 56.4941-49.9023L14.2578-49.9023C11.7676-49.9023 9.76562-47.9004 9.76562-45.4102C9.76562-42.9199 11.7676-40.918 14.2578-40.918ZM14.2578-20.8984L88.1348-20.8984C90.625-20.8984 92.627-22.9004 92.627-25.3906C92.627-27.8809 90.625-29.8828 88.1348-29.8828L14.2578-29.8828C11.7676-29.8828 9.76562-27.8809 9.76562-25.3906C9.76562-22.9004 11.7676-20.8984 14.2578-20.8984ZM14.2578-0.878906L56.4941-0.878906C59.0332-0.878906 61.0352-2.88086 61.0352-5.37109C61.0352-7.86133 59.0332-9.86328 56.4941-9.86328L14.2578-9.86328C11.7676-9.86328 9.76562-7.86133 9.76562-5.37109C9.76562-2.88086 11.7676-0.878906 14.2578-0.878906Z"/>
  </g>
  <g id="Semibold-S" transform="matrix(1 0 0 1 1992.97 696)">
   <path d="M13.8184-61.377L86.7188-61.377C89.0137-61.377 90.8203-63.1836 90.8203-65.4297C90.8203-67.6758 89.0137-69.4824 86.7188-69.4824L13.8184-69.4824C11.5723-69.4824 9.76562-67.6758 9.76562-65.4297C9.76562-63.1836 11.5723-61.377 13.8184-61.377ZM13.8184-41.3574L56.0547-41.3574C58.3008-41.3574 60.1562-43.1641 60.1562-45.4102C60.1562-47.6562 58.3008-49.4629 56.0547-49.4629L13.8184-49.4629C11.5723-49.4629 9.76562-47.6562 9.76562-45.4102C9.76562-43.1641 11.5723-41.3574 13.8184-41.3574ZM13.8184-21.3379L86.7188-21.3379C89.0137-21.3379 90.8203-23.1445 90.8203-25.3906C90.8203-27.6367 89.0137-29.4434 86.7188-29.4434L13.8184-29.4434C11.5723-29.4434 9.76562-27.6367 9.76562-25.3906C9.76562-23.1445 11.5723-21.3379 13.8184-21.3379ZM13.8184-1.31836L56.0547-1.31836C58.3008-1.31836 60.1562-3.07617 60.1562-5.37109C60.1562-7.61719 58.3008-9.42383 56.0547-9.42383L13.8184-9.42383C11.5723-9.42383 9.76562-7.61719 9.76562-5.37109C9.76562-3.07617 11.5723-1.31836 13.8184-1.31836Z"/>
  </g>
  <g id="Medium-S" transform="matrix(1 0 0 1 1696.95 696)">
   <path d="M13.4766-61.7188L85.6934-61.7188C87.7441-61.7188 89.4531-63.3301 89.4531-65.4297C89.4531-67.4805 87.7441-69.1406 85.6934-69.1406L13.4766-69.1406C11.4258-69.1406 9.76562-67.4805 9.76562-65.4297C9.76562-63.3301 11.4258-61.7188 13.4766-61.7188ZM13.4766-41.6992L55.7129-41.6992C57.7637-41.6992 59.4727-43.3105 59.4727-45.4102C59.4727-47.4609 57.7637-49.1211 55.7129-49.1211L13.4766-49.1211C11.4258-49.1211 9.76562-47.4609 9.76562-45.4102C9.76562-43.3105 11.4258-41.6992 13.4766-41.6992ZM13.4766-21.6309L85.6934-21.6309C87.7441-21.6309 89.4531-23.291 89.4531-25.3906C89.4531-27.4414 87.7441-29.1016 85.6934-29.1016L13.4766-29.1016C11.4258-29.1016 9.76562-27.4414 9.76562-25.3906C9.76562-23.291 11.4258-21.6309 13.4766-21.6309ZM13.4766-1.61133L55.7129-1.61133C57.7637-1.61133 59.4727-3.27148 59.4727-5.37109C59.4727-7.42188 57.7637-9.08203 55.7129-9.08203L13.4766-9.08203C11.4258-9.08203 9.76562-7.42188 9.76562-5.37109C9.76562-3.27148 11.4258-1.61133 13.4766-1.61133Z"/>
  </g>
  <g id="Regular-S" transform="matrix(1 0 0 1 1401.14 696)">
   <path d="M13.0371-62.1582L84.2773-62.1582C86.1328-62.1582 87.6465-63.5742 87.6465-65.4297C87.6465-67.2852 86.1328-68.7012 84.2773-68.7012L13.0371-68.7012C11.2305-68.7012 9.76562-67.2852 9.76562-65.4297C9.76562-63.5742 11.2305-62.1582 13.0371-62.1582ZM13.0371-42.0898L55.2734-42.0898C57.0801-42.0898 58.5938-43.5547 58.5938-45.4102C58.5938-47.2168 57.0801-48.6816 55.2734-48.6816L13.0371-48.6816C11.2305-48.6816 9.76562-47.2168 9.76562-45.4102C9.76562-43.5547 11.2305-42.0898 13.0371-42.0898ZM13.0371-22.0703L84.2773-22.0703C86.1328-22.0703 87.6465-23.5352 87.6465-25.3906C87.6465-27.1973 86.1328-28.6621 84.2773-28.6621L13.0371-28.6621C11.2305-28.6621 9.76562-27.1973 9.76562-25.3906C9.76562-23.5352 11.2305-22.0703 13.0371-22.0703ZM13.0371-2.05078L55.2734-2.05078C57.0801-2.05078 58.5938-3.51562 58.5938-5.37109C58.5938-7.17773 57.0801-8.64258 55.2734-8.64258L13.0371-8.64258C11.2305-8.64258 9.76562-7.17773 9.76562-5.37109C9.76562-3.51562 11.2305-2.05078 13.0371-2.05078Z"/>
  </g>
  <g id="Light-S" transform="matrix(1 0 0 1 1105.16 696)">
   <path d="M12.3047-62.8418L83.5938-62.8418C85.0098-62.8418 86.1816-63.9648 86.1816-65.4297C86.1816-66.8457 85.0098-67.9688 83.5938-67.9688L12.3047-67.9688C10.8887-67.9688 9.76562-66.8457 9.76562-65.4297C9.76562-63.9648 10.8887-62.8418 12.3047-62.8418ZM12.3047-42.8223L56.0059-42.8223C57.4219-42.8223 58.5938-43.8965 58.5938-45.3613C58.5938-46.7773 57.4219-47.9004 56.0059-47.9004L12.3047-47.9004C10.8887-47.9004 9.76562-46.7773 9.76562-45.3613C9.76562-43.8965 10.8887-42.8223 12.3047-42.8223ZM12.3047-22.7539L83.5938-22.7539C85.0098-22.7539 86.1816-23.877 86.1816-25.293C86.1816-26.7578 85.0098-27.8809 83.5938-27.8809L12.3047-27.8809C10.8887-27.8809 9.76562-26.7578 9.76562-25.293C9.76562-23.877 10.8887-22.7539 12.3047-22.7539ZM12.3047-2.68555L56.0059-2.68555C57.4219-2.68555 58.5938-3.80859 58.5938-5.27344C58.5938-6.68945 57.4219-7.8125 56.0059-7.8125L12.3047-7.8125C10.8887-7.8125 9.76562-6.68945 9.76562-5.27344C9.76562-3.80859 10.8887-2.68555 12.3047-2.68555Z"/>
  </g>
  <g id="Thin-S" transform="matrix(1 0 0 1 809.425 696)">
   <path d="M11.377-63.8184L82.6172-63.8184C83.5449-63.8184 84.2285-64.4531 84.2285-65.3809C84.2285-66.3086 83.5449-66.9922 82.6172-66.9922L11.377-66.9922C10.4492-66.9922 9.76562-66.3086 9.76562-65.3809C9.76562-64.4531 10.4492-63.8184 11.377-63.8184ZM11.377-43.7012L56.9824-43.7012C57.9102-43.7012 58.5938-44.3848 58.5938-45.3125C58.5938-46.2402 57.9102-46.875 56.9824-46.875L11.377-46.875C10.4492-46.875 9.76562-46.2402 9.76562-45.3125C9.76562-44.3848 10.4492-43.7012 11.377-43.7012ZM11.377-23.6328L82.6172-23.6328C83.5449-23.6328 84.2285-24.2676 84.2285-25.1953C84.2285-26.123 83.5449-26.8066 82.6172-26.8066L11.377-26.8066C10.4492-26.8066 9.76562-26.123 9.76562-25.1953C9.76562-24.2676 10.4492-23.6328 11.377-23.6328ZM11.377-3.51562L56.9824-3.51562C57.9102-3.51562 58.5938-4.19922 58.5938-5.12695C58.5938-6.05469 57.9102-6.68945 56.9824-6.68945L11.377-6.68945C10.4492-6.68945 9.76562-6.05469 9.76562-5.12695C9.76562-4.19922 10.4492-3.51562 11.377-3.51562Z"/>
  </g>
  <g id="Ultralight-S" transform="matrix(1 0 0 1 513.202 696)">
   <path d="M10.8398-64.3066L82.1289-64.3066C82.8125-64.3066 83.252-64.7461 83.252-65.3809C83.252-66.0156 82.8125-66.4551 82.1289-66.4551L10.8398-66.4551C10.2051-66.4551 9.76562-66.0156 9.76562-65.3809C9.76562-64.7461 10.2051-64.3066 10.8398-64.3066ZM10.8398-44.1895L57.5195-44.1895C58.1543-44.1895 58.5938-44.6289 58.5938-45.2637C58.5938-45.8984 58.1543-46.3379 57.5195-46.3379L10.8398-46.3379C10.2051-46.3379 9.76562-45.8984 9.76562-45.2637C9.76562-44.6289 10.2051-44.1895 10.8398-44.1895ZM10.8398-24.0723L82.1289-24.0723C82.8125-24.0723 83.252-24.5117 83.252-25.1465C83.252-25.7812 82.8125-26.2695 82.1289-26.2695L10.8398-26.2695C10.2051-26.2695 9.76562-25.7812 9.76562-25.1465C9.76562-24.5117 10.2051-24.0723 10.8398-24.0723ZM10.8398-3.95508L57.5195-3.95508C58.1543-3.95508 58.5938-4.39453 58.5938-5.0293C58.5938-5.71289 58.1543-6.15234 57.5195-6.15234L10.8398-6.15234C10.2051-6.15234 9.76562-5.71289 9.76562-5.0293C9.76562-4.39453 10.2051-3.95508 10.8398-3.95508Z"/>
  </g>
 </g>
</svg>
